<svg width="62" height="59" viewBox="0 0 62 59" fill="none" xmlns="http://www.w3.org/2000/svg">
<path d="M62 25.4938C62 41.9874 59.1872 59 42.6706 59C19.5 59 0 45.9935 0 29.5C0 13.0065 19.5893 0 36.1059 0C52.6224 0 62 9.00029 62 25.4938Z" fill="#F5F5F5"/>
<g clip-path="url(#clip0_367_186)">
<path d="M27.5739 45V30.9231H24V25.8548H27.5739V21.5257C27.5739 18.124 29.685 15 34.5494 15C36.5189 15 37.9753 15.1966 37.9753 15.1966L37.8606 19.9296C37.8606 19.9296 36.3753 19.9146 34.7545 19.9146C33.0003 19.9146 32.7193 20.7565 32.7193 22.1539V25.8548H38L37.7702 30.9231H32.7193V45H27.5739Z" fill="#B52121"/>
</g>
<defs>
<clipPath id="clip0_367_186">
<rect width="14" height="30" fill="white" transform="translate(24 15)"/>
</clipPath>
</defs>
</svg>
