<?xml version="1.0" encoding="utf-8"?>
<!-- Generator: Adobe Illustrator 24.3.0, SVG Export Plug-In . SVG Version: 6.00 Build 0)  -->
<svg version="1.1" id="_x30_" xmlns="http://www.w3.org/2000/svg" xmlns:xlink="http://www.w3.org/1999/xlink" x="0px" y="0px"
	 viewBox="0 0 16 16" style="enable-background:new 0 0 16 16;" xml:space="preserve">
<style type="text/css">
	.st0{fill:#B52121;}
</style>
<g>
	<path class="st0" d="M8,3C4.8,3,1.3,5.3,0,8c1.3,2.7,4.8,5,8,5c3.2,0,6.7-2.3,8-5C14.7,5.3,11.2,3,8,3z M8,12c-2.2,0-4-1.8-4-4
		s1.8-4,4-4c2.2,0,4,1.8,4,4S10.2,12,8,12z"/>
	<path class="st0" d="M8,5C7.7,5,7.4,5.1,7.1,5.1C7.6,5.4,8,5.9,8,6.5C8,7.3,7.3,8,6.5,8C5.9,8,5.4,7.6,5.1,7.1C5.1,7.4,5,7.7,5,8
		c0,1.7,1.3,3,3,3s3-1.3,3-3S9.7,5,8,5z"/>
</g>
</svg>
