<?xml version="1.0" encoding="utf-8"?>
<!-- Generator: Adobe Illustrator 24.3.0, SVG Export Plug-In . SVG Version: 6.00 Build 0)  -->
<svg version="1.1" id="_x30_" xmlns="http://www.w3.org/2000/svg" xmlns:xlink="http://www.w3.org/1999/xlink" x="0px" y="0px"
	 viewBox="0 0 16 16" style="enable-background:new 0 0 16 16;" xml:space="preserve">
<style type="text/css">
	.st0{fill:#0A1D37;}
</style>
<g>
	<g>
		<path class="st0" d="M8.9,11.9C8.6,12,8.3,12,8,12c-2.2,0-4-1.8-4-4c0-0.3,0-0.6,0.1-0.9L2.3,5.3C1.3,6.1,0.5,7,0,8
			c1.3,2.7,4.8,5,8,5c0.6,0,1.2-0.1,1.8-0.2L8.9,11.9z"/>
		<path class="st0" d="M7.1,4.1C7.4,4,7.7,4,8,4c2.2,0,4,1.8,4,4c0,0.3,0,0.6-0.1,0.9l1.9,1.9C14.7,9.9,15.5,9,16,8
			c-1.3-2.7-4.8-5-8-5C7.4,3,6.8,3.1,6.2,3.2L7.1,4.1z"/>
	</g>
	<rect x="7.3" y="0.2" transform="matrix(0.7071 -0.7071 0.7071 0.7071 -3.3163 8.0013)" class="st0" width="1.4" height="15.6"/>
</g>
</svg>
