<?xml version="1.0" encoding="utf-8"?>
<!-- Generator: Adobe Illustrator 16.0.0, SVG Export Plug-In . SVG Version: 6.00 Build 0)  -->
<!DOCTYPE svg PUBLIC "-//W3C//DTD SVG 1.1//EN" "http://www.w3.org/Graphics/SVG/1.1/DTD/svg11.dtd">
<svg version="1.1" id="圖層_1" xmlns="http://www.w3.org/2000/svg" xmlns:xlink="http://www.w3.org/1999/xlink" x="0px" y="0px"
	 width="32px" height="32px" viewBox="0 0 32 32" enable-background="new 0 0 32 32" xml:space="preserve">
<g>
	<path fill="#AC2324" d="M17.607,18.624l-4.425-4.384c0,0-2.153,2.036-5.005,2.049c-2.854,0.012-3.678,0.001-3.678,0.001
		s-0.004,2.031-0.291,4.782C3.922,23.787,1,29.895,1,29.895l6.242-6.297c-0.232-0.627-0.102-1.359,0.4-1.866
		c0.691-0.697,1.815-0.702,2.512-0.011c0.696,0.69,0.701,1.814,0.011,2.512c-0.503,0.507-1.233,0.642-1.863,0.416l-6.242,6.297
		c0,0,6.081-2.976,8.795-3.284c2.748-0.312,4.779-0.334,4.779-0.334s-0.019-0.824-0.032-3.677
		C15.589,20.797,17.607,18.624,17.607,18.624z"/>
	
		<rect x="18.369" y="2.445" transform="matrix(0.7162 0.6979 -0.6979 0.7162 13.0737 -12.5959)" fill="#AC2324" width="7.308" height="14.663"/>
	
		<rect x="24.569" y="1.743" transform="matrix(0.7161 0.698 -0.698 0.7161 10.7355 -17.9552)" fill="#AC2324" width="5.739" height="4.951"/>
</g>
<g>
</g>
<g>
</g>
<g>
</g>
<g>
</g>
<g>
</g>
<g>
</g>
</svg>
