<svg id="圖層_1" data-name="圖層 1" xmlns="http://www.w3.org/2000/svg" xmlns:xlink="http://www.w3.org/1999/xlink" viewBox="0 0 500.18 100"><defs><style>.cls-1{fill:#0a6493;}.cls-2{font-size:11.79px;fill:#3e3a39;font-family:ArialMT, Arial;letter-spacing:0.1em;}.cls-3{letter-spacing:0.04em;}.cls-4{letter-spacing:0.08em;}.cls-5{letter-spacing:-0.01em;}.cls-6{letter-spacing:0.1em;}.cls-7{fill:#fff;}.cls-8{fill:url(#linear-gradient);}.cls-9{fill:#ed7b2f;}.cls-10{fill:#4dac34;}.cls-11{fill:#e2cd1e;}.cls-12{fill:#d73f32;}</style><linearGradient id="linear-gradient" x1="45.12" y1="68.9" x2="45.12" y2="32.03" gradientUnits="userSpaceOnUse"><stop offset="0.1" stop-color="#ed7b2f"/><stop offset="0.36" stop-color="#0a6493"/></linearGradient></defs><path class="cls-1" d="M92.19,30.5a25.47,25.47,0,0,1,4.68,1.57h6.43v-.49a47,47,0,0,0-.4-6.59c1.16.11,2.62.32,4.37.63,1.22.15,1.82.38,1.82.68s-.35.73-1.07,1c-.52.15-.8.43-.8.85v3.93h6.2a20.91,20.91,0,0,1,1.52-1.7c.34-.44.66-.66.94-.66A5.8,5.8,0,0,1,118,30.76c1.29.89,1.94,1.52,1.94,1.87s-.27.62-.79.95a1.28,1.28,0,0,0-.66,1v5.77c0,1.06,0,2.53.14,4.41,0,.47-.61.79-1.81,1a9.77,9.77,0,0,1-1.2.1c-.6,0-.89-.36-.89-1.09V43.21h-7.52v4.33c0,2.21,0,4.35.15,6.46,0,.45-.62.82-1.84,1.08-.55.06-.94.1-1.19.1-.87,0-1.3-.39-1.3-1.18q.25-3.54.26-6.46V43.21H96.38v1.45c0,.5-.59.86-1.77,1.07a7.5,7.5,0,0,1-1.15.14c-.84,0-1.27-.36-1.27-1.09q.25-4.05.26-7.2V37C92.45,35.19,92.36,33,92.19,30.5Zm4.19,11.8h6.92V33H96.38ZM107.22,33V42.3h7.52V33Z"/><path class="cls-1" d="M128.68,33a29.85,29.85,0,0,0,4.63.27H150.6c.06,0,.42-.46,1.05-1.25s1.16-1.41,1.3-1.41c.41,0,1,.46,1.88,1.37s1.28,1.45,1.28,1.65a.48.48,0,0,1-.55.54h-3.91v4.34h.75a9.93,9.93,0,0,0,1-1.18c.78-.87,1.21-1.31,1.36-1.31.36,0,.95.42,1.76,1.27s1.25,1.41,1.25,1.61-.19.5-.54.5h-5.63v4.19c.18-.2.41-.49.72-.89.7-.87,1.11-1.31,1.24-1.31.36,0,.92.44,1.71,1.31s1.19,1.38,1.19,1.57-.18.49-.53.49h-11.7v3.84h4.88a9,9,0,0,0,1.11-1.31q1.18-1.44,1.38-1.44c.41,0,1,.47,1.94,1.41s1.34,1.5,1.34,1.71c0,.37-.22.54-.66.54h-10v4.86c0,.44-.58.75-1.75,1a10.75,10.75,0,0,1-1.14.1.92.92,0,0,1-1-1,38.35,38.35,0,0,0,.27-4.86h-5.38c-1.92,0-3.28.06-4,.14l-.53-1.31a30.59,30.59,0,0,0,4.58.26h5.38V44.78h-7.33c-1.94,0-3.29,0-4.08.14l-.55-1.31a26.55,26.55,0,0,0,4.46.29V39.42h-1.71a32.66,32.66,0,0,0-4.07.16l-.48-1.32a28.7,28.7,0,0,0,4.55.27h1.71V34.19c-1.84,0-3.14.06-3.91.14Zm-1.58-4.75a40.24,40.24,0,0,0,5.51.42h2.79v-1a14.52,14.52,0,0,0-.26-2.88c1,.13,2.27.3,3.73.52s2,.39,2,.7-.36.68-1.12,1a.87.87,0,0,0-.72.85v.81h6v-1a14,14,0,0,0-.27-2.88c1,.1,2.27.27,3.72.49s2,.36,2,.68-.37.7-1.11.92a.94.94,0,0,0-.72.88v1h3a9,9,0,0,0,1.11-1.34c.77-1,1.23-1.54,1.38-1.54.43,0,1.09.49,2,1.48s1.41,1.58,1.41,1.81-.23.48-.69.48h-8.22v1.87c0,.42-.57.71-1.67.92-.51.06-.87.1-1.09.1-.69,0-1-.22-1-.63a13.74,13.74,0,0,0,.13-1.44v-.82h-6v1.87c0,.42-.56.71-1.69.92a10.34,10.34,0,0,1-1.06.1c-.69,0-1.05-.22-1.05-.63a11.92,11.92,0,0,0,.14-1.44v-.82h-3.29a29.36,29.36,0,0,0-4.48.29Zm13.54,10.26V34.19h-3.8v4.34Zm0,5.37V39.42h-3.8V43.9Zm7.47-5.37V34.19h-3.83v4.34Zm0,5.37V39.42h-3.83V43.9Z"/><path class="cls-1" d="M174.8,30.5l.27.39a31.28,31.28,0,0,1-5.61,4.69c-1.25.67-1.87,1.09-1.87,1.24v.92c-.05.52-.18.79-.42.79s-.81-.63-1.55-1.88c-.38-.58-.88-1.4-1.47-2.46A63.46,63.46,0,0,0,174.8,30.5Zm-10-2.76a30.83,30.83,0,0,0,4.69.27,7.39,7.39,0,0,0,1.08-1.15c.74-.89,1.18-1.34,1.31-1.34.36,0,1,.44,1.76,1.31s1.25,1.38,1.25,1.6a.46.46,0,0,1-.52.52h-4.88c-1.94,0-3.34.06-4.2.15Zm9.28,22.2c.91.5,1.72.94,2.42,1.34Q178,52,178,52.42c0,.29-.22.45-.66.5s-.86.08-.92.25a34.65,34.65,0,0,1-3.87,1.16,56.44,56.44,0,0,1-7.26,1.24L165,55a36.91,36.91,0,0,0,5.4-2.32A12.44,12.44,0,0,0,174.12,49.94ZM169,36.53a23.44,23.44,0,0,1,4.55,1.57h11.54l1-.88a4.89,4.89,0,0,1,.71-.62c-.47-.36-.95-.73-1.43-1.15a20.53,20.53,0,0,1-1.84-2.27,6.16,6.16,0,0,1-1.5,1.65A10,10,0,0,1,179,36.46a18.84,18.84,0,0,1-5.51,1.12l-.13-.5a17.13,17.13,0,0,0,4.06-1.67,7.56,7.56,0,0,0,2.33-2,9.17,9.17,0,0,0,1.73-3.87l2.53.56c1.12.22,1.67.47,1.67.75s-.19.52-.59.66-.76.19-.85.39a.69.69,0,0,1-.14.21,15.27,15.27,0,0,0,4.11,2.25,29.25,29.25,0,0,0,5.43,1.38v.62A2.82,2.82,0,0,0,191.91,38c-.2.63-.4,1-.6,1a3.11,3.11,0,0,1-1-.29,1.07,1.07,0,0,1,.33.52,1.44,1.44,0,0,1-.66,1,1.59,1.59,0,0,0-.56,1.12v1.56l.27,6.68c0,.43-.62.73-1.84.93a8.75,8.75,0,0,1-1.19.09c-.59,0-.88-.34-.88-1v-.12H172.93v.39c0,.41-.56.73-1.66,1a8.21,8.21,0,0,1-1.06.1c-.79,0-1.17-.35-1.17-1.05.17-2.54.25-4.76.25-6.68v-.53C169.29,40.94,169.21,38.91,169,36.53Zm3.89,5h12.88V39H172.93Zm0,3.37h12.88V42.46H172.93Zm0,3.57h12.88V45.87H172.93Zm5-23.72c1,.26,1.93.53,2.85.81s1.34.55,1.34.85-.24.43-.72.5-.79.21-.85.32c-.22.4-.44.79-.69,1.18H188a12.21,12.21,0,0,1,1.12-.91c.45-.46.79-.69,1-.69s1,.47,2.11,1.41,1.53,1.39,1.53,1.77-.25.44-.75.52a2.63,2.63,0,0,0-1,.1A23.07,23.07,0,0,1,188,33l-.5-.27a25.74,25.74,0,0,0,1.05-3.43h-9.27a8.69,8.69,0,0,1-1.21,1.44,21.15,21.15,0,0,1-3.54,2.89l-.42-.36a23.31,23.31,0,0,0,2.38-4A21.39,21.39,0,0,0,178,24.77Zm3.24,25.78a38.86,38.86,0,0,1,6.29.53,8.36,8.36,0,0,1,3.19,1.15,1.88,1.88,0,0,1,.91,1.63,1.85,1.85,0,0,1-.46,1.32,2,2,0,0,1-1.24.39,6.11,6.11,0,0,1-2.82-1.51,23.74,23.74,0,0,0-6.13-2.82Z"/><path class="cls-1" d="M200.7,31.72a34.71,34.71,0,0,0,4.56.22h3.14a5.67,5.67,0,0,0,1.12-1.35c.79-1,1.25-1.49,1.38-1.49.46,0,1.14.48,2.07,1.46s1.37,1.55,1.37,1.77c0,.38-.23.56-.69.56h-8.39c-1.9,0-3.25,0-4.07.13Zm1.55-4.59a30.87,30.87,0,0,0,4.58.26h.82a14.45,14.45,0,0,0,1-1.18c.67-.9,1.08-1.35,1.21-1.35.37,0,1,.44,1.73,1.31s1.19,1.4,1.19,1.57c0,.36-.19.53-.56.53h-5.38a37,37,0,0,0-4.06.16Zm0,13.33a29.55,29.55,0,0,0,4.58.26h.82a9.37,9.37,0,0,0,1-1.11c.71-.9,1.16-1.35,1.32-1.35.37,0,1,.44,1.75,1.32S213,40.94,213,41.15s-.18.52-.56.52h-5.64c-1.9,0-3.25,0-4.06.13Zm0,3.31a25.32,25.32,0,0,1,4.28,1.58H208c.5-.56,1-1,1.37-1.42a1.22,1.22,0,0,1,.88-.58,5.44,5.44,0,0,1,1.84.91c1.12.79,1.67,1.33,1.67,1.61s-.21.59-.65.92a1.1,1.1,0,0,0-.53.88v2.27c0,1,.06,2.42.17,4.19,0,.41-.57.73-1.71.95a10.33,10.33,0,0,1-1,.1q-.93,0-.93-1V52.68h-3v1.71c0,.44-.51.75-1.56,1a10.34,10.34,0,0,1-1.06.1.94.94,0,0,1-1.07-1c.08-1.14.13-2.27.13-3.41V48.49A39.88,39.88,0,0,0,202.25,43.77Zm.13-7.73a34.91,34.91,0,0,0,4.58.23h.82a9.8,9.8,0,0,0,1.05-1.22c.75-.94,1.19-1.4,1.31-1.4.39,0,1,.45,1.87,1.37s1.28,1.44,1.28,1.63c0,.38-.19.57-.52.57H207c-1.9,0-3.24,0-4,.13Zm3.69,15.69h3v-5.5h-3Zm7-24.9a27.72,27.72,0,0,0,4.19.3h6.39a14.5,14.5,0,0,1,1.08-1.42c.42-.48.72-.72.92-.72A6.49,6.49,0,0,1,228,26.47c1,.76,1.51,1.32,1.51,1.67s-.31.54-.92.86-1,.66-1,1.14q0,12.15.6,15.86c.46,2.07.88,3.11,1.27,3.11.17,0,.4-.63.73-1.89.15-.73.39-1.7.72-2.93l.65.27-.12,5.38a11.46,11.46,0,0,0,.18,1.93,8.15,8.15,0,0,1,.17,1.21,1.38,1.38,0,0,1-1.4,1.53,4.76,4.76,0,0,1-2.2-.68,8.33,8.33,0,0,1-2.46-3.34,22,22,0,0,1-1.35-6.26c-.29-3.54-.42-9-.42-16.32H220v11.7h.38c.2-.33.45-.78.73-1.35.35-.77.59-1.14.72-1.14s.66.43,1.28,1.31A3.81,3.81,0,0,1,224,40.1c0,.33-.15.49-.43.49H220V54.52c0,.43-.59.76-1.78.95a8.49,8.49,0,0,1-1.12.1c-.6,0-.9-.36-.9-1a49.1,49.1,0,0,0,.22-5.28V40.59h-.1c-.67,0-1.56,0-2.65.13l-.5-1.3a24.5,24.5,0,0,0,3.15.29h.1V28c-1.12,0-2.08.06-2.88.13Z"/><path class="cls-1" d="M255.71,32.63a4.31,4.31,0,0,1,1.87,1.14c.85.75,1.27,1.28,1.27,1.61s-.26.46-.79.66a.89.89,0,0,0-.64.78l-1.16,8.79h4.6l.25-5.15a14.33,14.33,0,0,0-2.64.26l-.57-1.57a24.27,24.27,0,0,0,3.26.37l.24-4.92a16,16,0,0,0-2.55.23l-.52-1.54a19.55,19.55,0,0,0,3.15.32l.22-4.92a30.81,30.81,0,0,0-3.11.14l-.53-1.31a29.82,29.82,0,0,0,3.28.22c.38-.37.74-.73,1.12-1.08s.86-.72,1.08-.72a3.94,3.94,0,0,1,1.88,1c.95.75,1.43,1.22,1.43,1.44s-.31.63-.92.92-.87.7-.92,1l-.64,15.21h.35q.33-.82.72-1.71c.37-.78.7-1.18,1-1.18s.65.33,1.08,1a5.23,5.23,0,0,1,1,2.3c0,.33-.22.49-.66.49H241.29c-1,0-2.08.06-3.19.16l-.48-1.3c1.29.12,2.33.21,3.12.26l-.37-13.14a29.16,29.16,0,0,0-.52-5.34l3.37,1.14.62-.62a11.4,11.4,0,0,0,2-2.66c.95.62,1.82,1.17,2.63,1.67a5.33,5.33,0,0,1,1.14,1.05,19.58,19.58,0,0,0,.29-3.09c1.53.34,2.77.62,3.71.86s1.5.54,1.5.82-.3.59-.9.73a1.43,1.43,0,0,0-1,.71l-.39,2h1a5.78,5.78,0,0,0,.82-.88c.73-.88,1.18-1.31,1.39-1.31a6.45,6.45,0,0,1,2,1.48q1,.9,1,1.14a.44.44,0,0,1-.5.49h-6l-.75,3.7h1.7c.41-.37.78-.71,1.08-1C255.13,32.86,255.49,32.63,255.71,32.63Zm-9.34,14.91c1,.56,1.84,1,2.59,1.45,1,.52,1.48.92,1.48,1.2s-.23.42-.69.46-.9.11-1,.33a22.41,22.41,0,0,1-3.67,2.13,36.41,36.41,0,0,1-7,2.33l-.24-.56a29.51,29.51,0,0,0,5-3.31A12.51,12.51,0,0,0,246.37,47.54Zm2-14.29c.5-1.92.88-3.61,1.14-5.05a.4.4,0,0,1-.26.07l-1.67-.13a25.89,25.89,0,0,1-3.93,1.31l.1,4.32h.82s.26-.26.72-.78c.63-.76,1-1.15,1.21-1.15s.8.44,1.78,1.32A.38.38,0,0,0,248.37,33.25Zm3.34,2-.07.43c0,.46-.66.71-2,.76s-2-.26-2-.76a8.18,8.18,0,0,0,.26-.92h-4.19l.12,4.86h.7a9,9,0,0,0,.65-.73c.61-.67,1-1,1.15-1s.69.41,1.57,1.22a3.49,3.49,0,0,1,.58.56c.1-.84.18-1.54.24-2.13a21.36,21.36,0,0,1,3.08.68c.92.23,1.38.48,1.38.76s-.24.29-.69.42c-.63.08-1,.28-1,.62L251,45.61h1.6l1.64-10.4Zm-4,10.4c.26-2,.48-3.7.68-5.15h-4.56l.17,5.15ZM256,48.09a40.08,40.08,0,0,1,7.25,1.85c2.59.91,3.9,1.87,3.9,2.87a2.39,2.39,0,0,1-.6,1.74,2.3,2.3,0,0,1-1.67.89A2.58,2.58,0,0,1,263,54.36a30.65,30.65,0,0,0-3.31-3.15,22.58,22.58,0,0,0-4.13-2.59Z"/><path class="cls-1" d="M286.59,28.57l-3,.45V34.6h.13a7.41,7.41,0,0,0,1.12-1.31c.78-1,1.24-1.45,1.37-1.45q.66,0,2,1.41c.89.94,1.34,1.51,1.34,1.71,0,.37-.24.55-.68.55h-5.26v1.84a16.71,16.71,0,0,1,3.7,1.9q1.32,1,1.32,1.77a2.81,2.81,0,0,1-.62,1.83,1.72,1.72,0,0,1-1.35.76,1.78,1.78,0,0,1-.91-.23,4.72,4.72,0,0,1-.82-1.81,7.49,7.49,0,0,0-1.32-2.52V54.26c0,.42-.58.73-1.73.94a7.36,7.36,0,0,1-1.15.1c-.59,0-.88-.35-.88-1A41.27,41.27,0,0,0,280,49V42.42a19.18,19.18,0,0,1-2.29,3.48A17.07,17.07,0,0,1,275,48.75l-.5-.26a49.34,49.34,0,0,0,5.25-13h-.57c-1.89,0-3.24,0-4.06.13l-.51-1.31a29.07,29.07,0,0,0,4.57.27H280V29.42c-1.61.15-3.14.25-4.58.29l-.3-.76a31.86,31.86,0,0,0,5.61-1.66,17.36,17.36,0,0,0,4-2.3c1,.8,1.84,1.39,2.46,1.8.91.71,1.37,1.2,1.37,1.48s-.17.42-.53.42Zm15.73,13a5.33,5.33,0,0,1,1.61.85c1.11.72,1.68,1.18,1.68,1.37,0,.44-.13.66-.4.66l-4.33.59v3.47c0,2,0,4,.14,6,0,.43-.6.76-1.78.95a9.4,9.4,0,0,1-1.12.1c-.77,0-1.17-.36-1.17-1,.17-2.2.26-4.23.26-6v-3l-7.37,1.05a14.42,14.42,0,0,0-2.23.53l-1-1.39a25.82,25.82,0,0,0,3-.19l7.67-1V31.31q0-3.54-.26-6.18c1.07.1,2.42.31,4.07.62,1.13.13,1.7.36,1.7.68s-.36.65-1.09.86c-.49.12-.75.37-.75.72V43.64l.58-1.08C301.84,41.89,302.12,41.55,302.32,41.55Zm-13.76-5a16.29,16.29,0,0,1,5.14,1.83,2.54,2.54,0,0,1,1.28,2.1,2.42,2.42,0,0,1-.82,1.77,1.71,1.71,0,0,1-1.41.62c-.59,0-1.09-.52-1.55-1.54a11.47,11.47,0,0,0-2.91-4.23Zm1.8-8a14.14,14.14,0,0,1,4.69,1.83,2.89,2.89,0,0,1,1.07,2.23,2.58,2.58,0,0,1-.77,1.77,2,2,0,0,1-1.41.56c-.51,0-.94-.53-1.32-1.58a12.63,12.63,0,0,0-2.48-4.28Z"/><path class="cls-1" d="M311.67,32.47a28.28,28.28,0,0,0,4.59.28h.3V28.14a30.8,30.8,0,0,0-.3-3.28,29,29,0,0,1,3.47.66c1.37.27,2,.56,2,.91s-.28.6-.82.86-.88.37-.88.72v4.15c.14-.17.3-.36.46-.58a6,6,0,0,1,1.24-1.31c.4,0,1,.44,1.74,1.31s1.14,1.38,1.14,1.58a.43.43,0,0,1-.48.49h-4.1v6.09l3.57-.59.26.56c-1.29.74-2.57,1.43-3.83,2.06v9.87a3.29,3.29,0,0,1-1.15,2.85,4.58,4.58,0,0,1-2.66.95c-.3,0-.49-.32-.55-.95-.18-1-1.34-2-3.51-3l.16-.66a17.25,17.25,0,0,0,3.41.53c.53,0,.79-.18.79-.53V43.32l-1.87.69a.78.78,0,0,0-.48.55,2.26,2.26,0,0,0-.27.52.74.74,0,0,1-.69.53c-.26,0-.58-.85-1-2.56-.13-.46-.32-1.23-.59-2.33,1.69-.15,3.32-.32,4.89-.49V33.65h-.3c-1.89,0-3.26,0-4.06.12ZM324.17,31a26.07,26.07,0,0,0,4.55.29h1.08v-1a46.48,46.48,0,0,0-.26-5.28c1,.11,2.31.31,3.89.59,1.25.18,1.87.39,1.87.63s-.36.66-1.08.95c-.5.15-.75.43-.75.85v3.3h2.33a10.47,10.47,0,0,0,1.18-1.4c.83-1.09,1.31-1.64,1.44-1.64.46,0,1.17.52,2.13,1.58S342,31.49,342,31.72s-.23.48-.69.48h-7.83v5.51h1.58a5.8,5.8,0,0,1,1.37-1.44,1.45,1.45,0,0,1,.81-.49A5,5,0,0,1,339.47,37c1.07.85,1.61,1.45,1.61,1.77s-.32.61-.93.85c-.41.2-.63.44-.64.73a27.29,27.29,0,0,1-2.63,5.86,21.24,21.24,0,0,1-1.94,2.39c.4.2.81.4,1.25.59a29.39,29.39,0,0,0,6.07,1.9l-.13.76a2.88,2.88,0,0,0-2.27,1.87c-.3.76-.55,1.14-.76,1.14a9.71,9.71,0,0,1-2.8-1.08,18.33,18.33,0,0,1-4.08-3A22.39,22.39,0,0,1,328,53.08a43.93,43.93,0,0,1-6.55,2.1l-.28-.57a48.74,48.74,0,0,0,5.19-2.38,20,20,0,0,0,3.83-2.82c.13-.13.28-.26.43-.39a16.7,16.7,0,0,1-2.3-3.74,37.15,37.15,0,0,1-2.19-6.59c-.61,0-1.15.06-1.58.1L324,37.48a35.53,35.53,0,0,0,4.06.23h1.7V32.2h-1.08c-1.91,0-3.26,0-4.07.13Zm2.91,7.65a17.67,17.67,0,0,0,1.68,3.63,16.8,16.8,0,0,0,3.3,4.35l.33.26c.35-.53.71-1.13,1.08-1.76a19.93,19.93,0,0,0,2.19-6.48h-8.58Z"/><path class="cls-1" d="M349.55,29.45a30.41,30.41,0,0,0,4.55.26v-2a19.29,19.29,0,0,0-.22-2.75c1.33.14,2.64.33,3.93.59.79,0,1.17.23,1.17.63,0,.12-.22.29-.68.49s-.79.51-.79.82v1.93a5.8,5.8,0,0,0,.63-.69c.63-.75,1-1.11,1.1-1.11.34,0,.85.36,1.55,1.11L361,29a28.51,28.51,0,0,0,1.54-3.14c1.17.61,2.12,1.16,2.9,1.64s1.4.92,1.4,1.24-.31.5-.92.5l-1-.09c-1.71,2.35-3.19,4.23-4.42,5.62h1.66a7.15,7.15,0,0,0,.83-1,5.56,5.56,0,0,1,1.1-1.2c.38,0,.92.39,1.65,1.2,0,0,0,0,.06.08a5.22,5.22,0,0,0,.4-1A59.72,59.72,0,0,0,368,24.62c1.16.32,2.28.64,3.37,1s1.62.64,1.62,1-.29.59-.9.68-.89.25-1,.4a30.83,30.83,0,0,1-1.92,4.82H373a13.42,13.42,0,0,0,1-1.06c.88-1,1.46-1.54,1.74-1.54A7.69,7.69,0,0,1,378,31.58c.76.7,1.15,1.14,1.15,1.31,0,.33-.24.49-.69.49h-1.6a36.29,36.29,0,0,1-1.51,9.31,21.37,21.37,0,0,1-2.43,5,13,13,0,0,0,1.21,1.15A20.82,20.82,0,0,0,379.44,52l-.26.57c-.75.09-1.34.68-1.81,1.8-.37.72-.64,1.08-.82,1.08-.7,0-1.88-.87-3.53-2.63a21.66,21.66,0,0,1-2.26-2.65,15.45,15.45,0,0,1-2,1.54,32.46,32.46,0,0,1-7.21,3.74l-.39-.68A21,21,0,0,0,366,51.4a19.51,19.51,0,0,0,3.24-3.7,14.58,14.58,0,0,1-1-2.62,40.28,40.28,0,0,1-1.34-8.81,42.37,42.37,0,0,1-2.79,3.41c.44.42.66.71.66.91s-.44.48-1.32.53a3.16,3.16,0,0,0-1.43.29c-.89.55-1.67,1-2.37,1.44,1,.22,1.54.48,1.54.76s-.27.6-.82.82a1.41,1.41,0,0,0-.32.13c2.09-.35,4.1-.76,6-1.21l.25.55A54.32,54.32,0,0,1,359.51,47v4.78a3,3,0,0,1-1.28,2.79,5.52,5.52,0,0,1-2.92.92c-.25,0-.43-.3-.53-.89-.14-.94-1.16-1.88-3-2.82l.14-.62a23.88,23.88,0,0,0,3.56.4c.43,0,.63-.19.63-.53V48c-1.11.31-2.24.58-3.38.82-.54.07-.81.19-.81.39s-.09.32-.14.5-.19.45-.39.45c-.41,0-.92-.76-1.51-2.29-.17-.41-.45-1.09-.86-2,2.46-.19,4.81-.43,7.09-.72,0-.64-.11-1.63-.26-3,.89.16,1.62.28,2.2.36.3-.67.63-1.44,1-2.29h-1.17a34.63,34.63,0,0,0-4.07.23l-.19-.52a48.8,48.8,0,0,1-4.69,1.86l-.39-.51a30.11,30.11,0,0,0,7.5-5.45l.22-.2h-3c-1.9,0-3.25,0-4.06.14l-.52-1.32a29.72,29.72,0,0,0,4.58.26h.92V30.63c-1.89,0-3.26,0-4.06.13ZM363.4,39c.63-1.16,1.17-2.27,1.65-3.35h-5.47c-.48.48-.94.9-1.35,1.25a15.55,15.55,0,0,1-3.17,2.26,26.7,26.7,0,0,0,2.75.13h1l.86-.85c.63-.64,1.1-1,1.41-1a4.83,4.83,0,0,1,2.09,1.31Zm-5.89-4.89A38.49,38.49,0,0,0,360,30.63h-2.49Zm10.2,1a26.94,26.94,0,0,0,.76,4.09,23.65,23.65,0,0,0,2,5.25c.13.22.26.42.39.62a16.92,16.92,0,0,0,1.41-3.79,30.83,30.83,0,0,0,1-7.91h-4.52a13.54,13.54,0,0,1-.73,1.18C367.92,34.74,367.82,34.92,367.71,35.12Z"/><path class="cls-1" d="M398.49,24.62c1.46.15,2.87.32,4.24.54.83,0,1.26.26,1.26.65,0,.16-.24.35-.72.59s-.85.59-.85,1V29.1h7.9a12.42,12.42,0,0,0,1.12-1.39c.77-1,1.21-1.5,1.37-1.5.41,0,1.09.49,2,1.47s1.42,1.55,1.42,1.77c0,.37-.21.56-.66.56H400.39c-1.49,1.53-2.92,2.9-4.32,4.13q5.73-.3,11.66-.85a16.75,16.75,0,0,0-2.3-1.71l.3-.69a27,27,0,0,1,5,1.51,8,8,0,0,1,2.66,1.84,2.43,2.43,0,0,1,.73,1.66,2.07,2.07,0,0,1-.63,1.49,1.68,1.68,0,0,1-1.34.71c-.38,0-1.13-.82-2.27-2.46a9.53,9.53,0,0,0-1.12-1.31,109.24,109.24,0,0,1-17.06,3.11,26,26,0,0,1,3.44,1.35h11.73a7.67,7.67,0,0,0,.79-.89c.66-.63,1.1-.94,1.34-.94a5.72,5.72,0,0,1,2.2,1.2c1.07.79,1.6,1.36,1.6,1.68s-.25.54-.76.92-1,.88-1,1.28V52.3A2.92,2.92,0,0,1,409.3,55a5.48,5.48,0,0,1-2.42.71c-.28,0-.54-.41-.79-1.26q-.52-1.53-3.89-2.56l.12-.63c1.88.18,3.41.27,4.56.27.36,0,.55-.37.55-1.08V48.36H394.29v6.25c0,.47-.54.79-1.63,1a8,8,0,0,1-1.12.09c-.68,0-1-.35-1-1.08.08-1.15.13-2.31.13-3.5v-9.2c0-1.47-.08-2.91-.22-4.33h-.21c-.13,0-.23.21-.29.65s-.26.69-.46.69c-.48,0-.89-.57-1.21-1.7-.25-.61-.59-1.58-1.06-2.89q3.12,0,6.2-.09c.74-1.25,1.48-2.66,2.24-4.23h-5.12a33.07,33.07,0,0,0-4.5.26l-.51-1.58a43.29,43.29,0,0,0,5.51.41h7.76V27.52A13.94,13.94,0,0,0,398.49,24.62ZM394.29,43h13.14V39.71H394.29Zm0,4.45h13.14V43.9H394.29Z"/><path class="cls-1" d="M431.77,25l2.13,1.22c.82.43,1.24.78,1.24,1s-.2.29-.62.33-.86.06-.95.16a16.31,16.31,0,0,1-1.77.33c-.55.07-1.31.14-2.26.23l.06,2.59h.46a8.66,8.66,0,0,0,.69-.69c.59-.67,1-1,1.15-1s.69.4,1.54,1.21c.55.46.81.76.81.91,0,.36-.13.53-.43.53H429.6l.1,3.37h.49a5.72,5.72,0,0,0,.66-.68q.91-1,1.17-1c.18,0,.7.41,1.55,1.21.55.49.82.79.82.92,0,.33-.14.5-.44.5H429.7l.07,2.78h16.06L446,36c-1.45,0-2.62,0-3.51.1L442,34.83a27.13,27.13,0,0,0,4,.26l.2-3.15c-1.53,0-2.77,0-3.74.13L442,30.76a29.25,29.25,0,0,0,4.29.26l.13-2.75c-1.46,0-2.72.06-3.76.16l-.55-1.3a38.71,38.71,0,0,0,4,.26,14.31,14.31,0,0,1,1.12-1.09c.49-.51.87-.78,1.1-.78a4,4,0,0,1,1.84,1.05c1,.76,1.44,1.25,1.44,1.44,0,.35-.34.66-1,.94s-.92.68-1,1.06l-.36,7.76a1.45,1.45,0,0,1,.76-.42c.28,0,.94.44,2,1.34s1.41,1.34,1.41,1.68-.24.42-.75.49-1,0-1.05.16a33.31,33.31,0,0,1-4.06,2.1l-.53-.27a20.21,20.21,0,0,0,1.44-3H426c-.05.69-.11,1.24-.16,1.64a3.35,3.35,0,0,1-.73,1.64,1.25,1.25,0,0,1-.65.23,2.57,2.57,0,0,1-1.67-.56,1.73,1.73,0,0,1-.57-1.38c0-.26.29-.58.86-.95a4.45,4.45,0,0,0,1.43-1.21,5,5,0,0,0,.83-1.9l.69.13c0,.53,0,1,0,1.44h.78l-.23-7.73A24.74,24.74,0,0,0,426,26.3l3.18,1.15a9.63,9.63,0,0,0,1.12-.81A6.12,6.12,0,0,0,431.77,25ZM428.06,42a23.14,23.14,0,0,0,4.59.42h8c.37-.33.66-.59.85-.79a2.57,2.57,0,0,1,1.41-.81c.37,0,1,.44,2.07,1.34s1.56,1.49,1.56,1.83-.43.45-1.3.49a4.54,4.54,0,0,0-1.45.26c-1.13.55-2.17,1-3.11,1.39.16.11.22.21.22.32,0,.33-.26.6-.81.82a1.2,1.2,0,0,0-.82.49h7.27a7.18,7.18,0,0,0,1.12-1.34c.79-1,1.26-1.54,1.41-1.54.43,0,1.12.49,2,1.47s1.37,1.6,1.37,1.84-.22.52-.66.52H439.24V52a3.06,3.06,0,0,1-1.31,2.86,5.18,5.18,0,0,1-2.91,1c-.31,0-.51-.31-.59-.95-.16-1-1.37-2-3.61-3l.14-.63a24,24,0,0,0,4,.49c.53,0,.79-.16.79-.49V48.75h-8.55c-1.91,0-3.25,0-4,.1l-.55-1.31a29.78,29.78,0,0,0,4.59.26h8.55a26.93,26.93,0,0,0-.3-2.88c1.78.28,2.93.5,3.47.65a0,0,0,0,0,0,0,23.42,23.42,0,0,0,1.87-2.26h-8.13a29.08,29.08,0,0,0-4,.26Zm10.66-10.46c.76.39,1.42.74,2,1.05.79.39,1.18.69,1.18.88s-.2.4-.62.46-.76.08-.82.22l-.56.53a4.27,4.27,0,0,1,1.12.92A1.82,1.82,0,0,1,441.6,37a1.53,1.53,0,0,1-.49,1.11,1.13,1.13,0,0,1-.95.6c-.34,0-1-.66-2-2-.13-.16-.26-.31-.38-.47a21.07,21.07,0,0,1-4.46,2l-.14-.43A18.46,18.46,0,0,0,436.42,35h0a19.77,19.77,0,0,0-2.07-1.48l.26-.49a23.19,23.19,0,0,1,2.86.69A10.08,10.08,0,0,0,438.72,31.58Zm.13-6.72,2,1.08c.79.38,1.18.67,1.18.89s-.2.4-.61.42-.77.09-.82.27a1.63,1.63,0,0,0-.33.36,3.29,3.29,0,0,1,.79.79A1.88,1.88,0,0,1,441.6,30a1.55,1.55,0,0,1-.49,1.12,1.16,1.16,0,0,1-.95.59q-.46,0-1.77-2a16.15,16.15,0,0,1-3.74,2.16l-.13-.39a19.91,19.91,0,0,0,2.55-3,.48.48,0,0,0,.11-.2,19.08,19.08,0,0,0-2.27-1.84l.23-.49a26.36,26.36,0,0,1,2.92.79A9.86,9.86,0,0,0,438.85,24.86Z"/><path class="cls-1" d="M472.62,24.5c1.17.36,2.21.64,3.1.88,1.17.35,1.75.66,1.75.92s-.35.54-1,.63l-.29.1a37.56,37.56,0,0,0,6,2,67.6,67.6,0,0,0,8.06,1.25l-.13.75A3.07,3.07,0,0,0,488.11,33c-.23.74-.51,1.11-.81,1.11A14.3,14.3,0,0,1,483.79,33a29.05,29.05,0,0,1-5.45-2.69,25.34,25.34,0,0,1-3.3-2.56,25.47,25.47,0,0,1-5.7,3.91A39.59,39.59,0,0,1,464.26,34c.91.31,1.84.68,2.78,1.09h14.35c.46-.49.92-.92,1.35-1.32a1.29,1.29,0,0,1,.85-.48,5.23,5.23,0,0,1,1.87.88c1.13.77,1.71,1.3,1.71,1.61a1.23,1.23,0,0,1-.53.87,1.34,1.34,0,0,0-.42.93v1.09c0,1,0,2.41.13,4.18,0,.41-.54.74-1.64.95a8.22,8.22,0,0,1-1.12.1.82.82,0,0,1-.88-.78H466.55c0,.32-.33.6-1,.81a31.73,31.73,0,0,1,4,1.54h10.15A15.4,15.4,0,0,1,481,44.13a1.32,1.32,0,0,1,.84-.52,5.64,5.64,0,0,1,1.91.91c1.11.79,1.67,1.32,1.67,1.58a1.31,1.31,0,0,1-.69,1,1.25,1.25,0,0,0-.49,1V49.8c0,1.05,0,2.5.14,4.33,0,.41-.58.73-1.75.95-.52.06-.9.1-1.14.1-.63,0-.95-.35-.95-1v-.27H468.81v.4c0,.42-.52.73-1.57.94a6.51,6.51,0,0,1-1,.1c-.74,0-1.1-.35-1.1-1,.09-1.14.14-2.27.14-3.41V48.49a42,42,0,0,0-.23-4.42h0a9.78,9.78,0,0,1-1.07.1c-.67,0-1-.35-1-1.05.08-1.14.13-2.28.13-3.41V38.26c0-1.28-.07-2.53-.17-3.73-1,.37-2.12.74-3.28,1.11l-.39-.55a43.93,43.93,0,0,0,7.54-4.59A26.37,26.37,0,0,0,472.62,24.5Zm-6.07,17.66h6.2V36h-6.2Zm1.19-5.51a13.38,13.38,0,0,1,3,1.22c.81.53,1.2,1,1.2,1.41a2.58,2.58,0,0,1-.88,2,1.83,1.83,0,0,1-1.32.49.79.79,0,0,1-.64-.29,2.65,2.65,0,0,1-.43-1.22A11.58,11.58,0,0,0,467.37,37Zm1.07,12.46h11.77V46.36H468.81Zm0,3.83h11.77V50.06H468.81Zm.49-21.1a35.5,35.5,0,0,0,4.62.23h.26a5.46,5.46,0,0,0,1-1.14c.74-.91,1.18-1.35,1.3-1.35.4,0,1,.44,1.81,1.31s1.24,1.4,1.24,1.58A.49.49,0,0,1,479,33h-5.09c-1.91,0-3.26,0-4.06.14Zm7,10.32h6.45V36h-6.45ZM478,36.4c1,.34,1.86.71,2.68,1.08,1.12.37,1.67.76,1.67,1.19,0,.21-.26.35-.78.45s-.84.26-.95.46a13.45,13.45,0,0,1-3.38,2.22l-.56-.39A16.41,16.41,0,0,0,478,36.4Z"/><text class="cls-2" transform="translate(92.18 72.52)">Chinese<tspan class="cls-3" x="51.53" y="0"> </tspan><tspan x="55.34" y="0">Association for Computer and Educational</tspan><tspan class="cls-4" x="322.81" y="0"> </tspan><tspan class="cls-5" x="327.06" y="0">T</tspan><tspan class="cls-6" x="334.13" y="0">echnology</tspan></text><path class="cls-7" d="M44.1,86.82A36.39,36.39,0,1,1,80.5,50.43,36.43,36.43,0,0,1,44.1,86.82Z"/><path class="cls-1" d="M44.72,33.05a6.82,6.82,0,0,0-2.4.2c-.36.19-.31.42-.44.72-.19.47-.31.13-.74.15-.08-.35.39-.66.56-.94a2.07,2.07,0,0,0,.2-1.27c-.09-.3-.45-.52-.69-.7-.52-.44-2-1.95-1-5.07s7.5-6.82,9.36-7.47c0,2.6,3.34,7.8,2,11.06S45.66,33,44.72,33.05Z"/><path class="cls-1" d="M25.78,49a19,19,0,0,0,1,3.5,9.62,9.62,0,0,0,3.16,3.41A6.69,6.69,0,0,0,35,57c1.28-.32,3.34-1.58,4.14-1.57.46,0,1.75.74,2,.41-.08-.76-.94-.8-1.4-1s-.56-.56-.94-1.2-1.81-2.9-2.25-3.47a5,5,0,0,0-4.9-1.9c-1.86,0-3.4,1.08-4.2,1.24A2.67,2.67,0,0,1,25.78,49Z"/><path class="cls-1" d="M42.79,45.11c-.44,0-.82-1-1.11-1.32-.44-.5-.54-.65-1.19-.67s-1.07-.63-1.4-1.06c-.71-.91-1.42-.25-1.84-.42-.76,2-3.21,3.91-7.25,3s-3.91-3.78-5.44-5.15c0-1.88,2.65-4.78,5.78-4.8s5.88,1.73,6.45,2.94,0,1.64.34,2.69c.15.49.77.24,1.21.32a2.08,2.08,0,0,1,1.1.51,1.63,1.63,0,0,0,1,.54c1,0,1.78,1.06,2.52,0"/><path class="cls-1" d="M43.61,40.57a4.27,4.27,0,0,1,3-1.82c1.08-.06,2.15.63,3.16.17s1.33-2.35,2.25-3a4.87,4.87,0,0,1,5.77.52c2.7,2.06,3.16,4,6,4.67.2.87-2.13,3.43-6.51,4-4.16.58-5.49,0-6.64-1.66a25.28,25.28,0,0,1-1.54-2.91,2.65,2.65,0,0,0-2.44-.47,6.93,6.93,0,0,0-2.18,2,10,10,0,0,0-1.54,2.66"/><path class="cls-1" d="M45.59,39.35c.21-.25.38-.73.76-.75a3.12,3.12,0,0,0-.09-1.33A2.29,2.29,0,0,1,45.94,36a1.4,1.4,0,0,1,.51-1.23c.32-.31.75-.91,1.15-1.07a5.41,5.41,0,0,1,.53,1.8,6.26,6.26,0,0,1,0,2c-.23.7-1.12.23-1.29.83s0,.37-.32.65-.34.2-.28.55"/><path class="cls-1" d="M43.76,46.22c.32-.39,1.21-.27,1.49-.68s-.49-1.24.26-1.7,1.66.07,2.47-.06a2.43,2.43,0,0,1-.64,2,2.06,2.06,0,0,1-1.68.19c-.29-.07-.71-.25-1.56.66"/><path class="cls-1" d="M41.39,48.36c-.24-.12-.34-.07-.57-.19a2,2,0,0,1-1.55.34,3.61,3.61,0,0,1-1.66-1.14,3.28,3.28,0,0,1,1.28-.94,3.1,3.1,0,0,1,2,.39c.64.44-.37.93.62,1.29"/><path class="cls-1" d="M45.77,57.05c1-.14,1.67-.54,1.76-1.46,0-.53-.12-3.78,4.94-3.1a10.27,10.27,0,0,1,6.08,3.58,6,6,0,0,0,1.23,1.19A2.4,2.4,0,0,0,61,57.5c-1.44.8-2,2.27-3.66,3.11A9.69,9.69,0,0,1,51.87,62a5.34,5.34,0,0,1-5.16-4.55,1.75,1.75,0,0,0-.85,0C45.5,57.54,45.77,57.05,45.77,57.05Z"/><path class="cls-7" d="M36.79,54a5,5,0,0,1-.68.81,4,4,0,0,1-.82.59,3.09,3.09,0,0,1-2.39.37A2.92,2.92,0,0,1,31,54.36a3.13,3.13,0,0,1-.31-2.56,3.62,3.62,0,0,1,1.73-2.08,3.81,3.81,0,0,1,.66-.31,5,5,0,0,1,.79-.2l.58,1a3.54,3.54,0,0,0-.91.07,2.53,2.53,0,0,0-.78.32,1.81,1.81,0,0,0-.92,1.27,2.33,2.33,0,0,0,.32,1.68,2.43,2.43,0,0,0,1.27,1.13,1.72,1.72,0,0,0,1.5-.12,2.87,2.87,0,0,0,.76-.63,3.24,3.24,0,0,0,.5-.91Z"/><path class="cls-7" d="M48.82,30.23a6.3,6.3,0,0,1-1.23.45,5.7,5.7,0,0,1-1.25.12,3.88,3.88,0,0,1-2.8-1.08A3.61,3.61,0,0,1,42.43,27a3.88,3.88,0,0,1,1.25-2.94,4.41,4.41,0,0,1,3.14-1.17,5.88,5.88,0,0,1,.9.07,7,7,0,0,1,1,.28V24.7a4.33,4.33,0,0,0-1-.5,3.65,3.65,0,0,0-1-.13,2.22,2.22,0,0,0-1.75.79,2.91,2.91,0,0,0-.71,2,3,3,0,0,0,.67,2,2.08,2.08,0,0,0,1.68.8,3.21,3.21,0,0,0,1.2-.2,3.78,3.78,0,0,0,1.1-.67Z"/><path class="cls-7" d="M52.41,43.14a1.89,1.89,0,0,0,.26-.46,3.27,3.27,0,0,0,.18-.65l.76-3.77a3,3,0,0,0,.08-.67,1.51,1.51,0,0,0-.06-.52l1.49.3,2.1.42-.39.54-.39.55a2.7,2.7,0,0,0-.63-.38,3.62,3.62,0,0,0-.72-.22l-.15,0-.33,1.67,1.91.38-.4.5-.4.49L55.08,41a4,4,0,0,0-.41-.14l-.24-.05-.35,1.78a6.51,6.51,0,0,0,1.16.11,4.71,4.71,0,0,0,1.34-.18l-.44.66-.45.67-1.79-.36Z"/><path class="cls-7" d="M51.18,59.08l.82-4a10.84,10.84,0,0,0-1.08-.15,1.8,1.8,0,0,0-.83.07l.26-.56.26-.56,2.2.44,2.48.5-.28.56-.28.55a1.54,1.54,0,0,0-.56-.35,5,5,0,0,0-.9-.25l-.81,4a3.46,3.46,0,0,0-.08.65,1.81,1.81,0,0,0,.09.55l-.87-.18-.88-.18a2.05,2.05,0,0,0,.29-.47A4.25,4.25,0,0,0,51.18,59.08Z"/><path class="cls-7" d="M29.91,42.16,30,37.74c0-.22,0-.44,0-.63a1.28,1.28,0,0,0-.05-.39l.48-.2.48-.21a1.44,1.44,0,0,0,.25.3c.13.15.29.3.45.45l3.22,3c.22.21.42.38.57.51a3.86,3.86,0,0,0,.46.32l-.78.34-.77.33a1.13,1.13,0,0,0-.19-.38,3.57,3.57,0,0,0-.36-.42l-.6-.61L31,41.1V42a1.82,1.82,0,0,0,.05.48,1.7,1.7,0,0,0,.18.44l-.69.3-.7.3a2.47,2.47,0,0,0,.06-.47C29.9,42.81,29.9,42.53,29.91,42.16ZM31,40l1.41-.6L31,38h0Z"/><path class="cls-8" d="M38.51,68.9C38.73,68,40.88,55.34,41,54.43c.06-.59.27-.84.16-1.09s-.48-.46-.43-.78c0-.15.43-.19.48-.3.11-.3-.05-.33,0-.79a6.8,6.8,0,0,0,0-1.19,10.24,10.24,0,0,1,.26-2.44c.09-.81.34-1.61.45-2.45s-.16-1.58,0-2.36a19,19,0,0,0,.63-2.2c0-.61,0-1.24,0-1.85V37.54c0-.52-.15-1-.2-1.57s-.13-.78-.63-1-.6,0-.75-.54c-.54-.14-.86-.61-1.37-.52s-.49.34-1,.34c-.72,0-1.45-.13-1.72-.84a3.16,3.16,0,0,1-.18-1.34A8.92,8.92,0,0,0,38.57,32a1.56,1.56,0,0,1,1,.48c.3.28.27.77.48,1.07a.93.93,0,0,0,.82.32c.41,0,.32,0,.44-.35.2-.49.56-.5.46.15-.13.95.4.91,1.15,1.07a2.28,2.28,0,0,1,1.29,1.1c.72.28.16,1.76,0,2.26A8.49,8.49,0,0,0,44,40.26c0,.84-.52,1.52-.27,2.37.13.43.43.72.58,1.15A3.62,3.62,0,0,1,44.41,45a9.14,9.14,0,0,0,.1,2.82c.31.86,1.33,1.18,2.15,1.38a10.27,10.27,0,0,0,2.49.19c.84,0,.54.19.54-.31,0-.26.08-.15-.11-.37s-.25-.12-.36-.29a2.38,2.38,0,0,1-.09-1.25c.14-.79,1.29-1,1.8-1.51,0,.71.65,2.15,0,2.72-.25.23-.72.18-.93.5a.46.46,0,0,0-.09.45,10,10,0,0,1,2.36.61c.32.2,1.21.43,1.3.85.17.82-1.89,0-2.21-.16s-.59-.31-.86-.38a2.56,2.56,0,0,0-1.06.07,8.53,8.53,0,0,0-2.08.83c-1,.45-1,1-1.21,2.07a12.8,12.8,0,0,0,0,2.83c0,1.65-.18,11-.18,12.72"/><path class="cls-9" d="M28.55,81.27A33.93,33.93,0,0,0,77.63,58.62a80.16,80.16,0,0,0-8.46,1C52.22,62.54,37.88,70.65,28.55,81.27Z"/><path class="cls-10" d="M37.17,84.44A33.95,33.95,0,0,0,77,61.35C60.09,64.8,46,73.41,37.17,84.44Z"/><path class="cls-11" d="M46.61,85.19A33.93,33.93,0,0,0,76.52,62.55C63.66,67.48,53.2,75.57,46.61,85.19Z"/><path class="cls-12" d="M75.68,64.73A47.5,47.5,0,0,0,55.31,83.5,34,34,0,0,0,75.68,64.73Z"/><path class="cls-9" d="M11.65,62.26A34.57,34.57,0,0,0,61.19,80.8C49.94,69.53,32.27,62.26,12.39,62.26Z"/><path class="cls-10" d="M44.51,85.25a33.87,33.87,0,0,0,9.92-1.47C45,73.42,30.23,66.17,13.2,64.38A33.91,33.91,0,0,0,44.51,85.25Z"/><path class="cls-11" d="M44.51,85.25c.39,0,.77,0,1.15,0-7.54-8.5-18.52-15.14-31.43-18.61A33.92,33.92,0,0,0,44.51,85.25Z"/><path class="cls-12" d="M15.78,69.74A33.94,33.94,0,0,0,36.32,84.31,60.68,60.68,0,0,0,15.78,69.74Z"/><path class="cls-9" d="M44.3,89A38.54,38.54,0,1,1,82.84,50.43,38.58,38.58,0,0,1,44.3,89Zm0-72.77A34.24,34.24,0,1,0,78.55,50.43,34.27,34.27,0,0,0,44.3,16.19Z"/></svg>