<?xml version="1.0" encoding="utf-8"?>
<!-- Generator: Adobe Illustrator 16.0.0, SVG Export Plug-In . SVG Version: 6.00 Build 0)  -->
<!DOCTYPE svg PUBLIC "-//W3C//DTD SVG 1.1//EN" "http://www.w3.org/Graphics/SVG/1.1/DTD/svg11.dtd">
<svg version="1.1" id="圖層_1" xmlns="http://www.w3.org/2000/svg" xmlns:xlink="http://www.w3.org/1999/xlink" x="0px" y="0px"
	 width="488px" height="78px" viewBox="0 0 488 78" enable-background="new 0 0 488 78" xml:space="preserve">
<g>
	<g>
		<path fill="#0A6494" d="M88.22,19.07c1.657,0.391,3.222,0.917,4.682,1.574h6.426v-0.493c0-2.513-0.132-4.704-0.394-6.587
			c1.153,0.112,2.616,0.316,4.367,0.629c1.223,0.153,1.82,0.378,1.82,0.682c0,0.396-0.348,0.726-1.071,0.988
			c-0.525,0.146-0.798,0.433-0.798,0.85v3.932h6.195c0.532-0.657,1.037-1.223,1.52-1.705c0.342-0.436,0.662-0.658,0.942-0.658
			c0.329,0,1.046,0.354,2.129,1.054c1.294,0.893,1.939,1.518,1.939,1.867c0,0.301-0.271,0.625-0.787,0.953
			c-0.433,0.302-0.657,0.641-0.657,1.021v5.763c0,1.069,0.048,2.54,0.132,4.419c0,0.463-0.604,0.79-1.804,0.988
			c-0.529,0.064-0.928,0.097-1.207,0.097c-0.594,0-0.887-0.36-0.887-1.085v-1.569h-7.516v4.325c0,2.211,0.049,4.354,0.144,6.464
			c0,0.444-0.617,0.812-1.836,1.075c-0.553,0.064-0.943,0.098-1.193,0.098c-0.867,0-1.302-0.389-1.302-1.173
			c0.178-2.364,0.263-4.519,0.263-6.464v-4.325h-6.915v1.443c0,0.501-0.594,0.864-1.769,1.076c-0.518,0.087-0.906,0.135-1.154,0.135
			c-0.846,0-1.27-0.36-1.27-1.085c0.167-2.709,0.26-5.107,0.26-7.206V25.53C88.479,23.762,88.387,21.604,88.22,19.07z
			 M92.412,30.873h6.915v-9.281h-6.915V30.873z M103.252,21.592v9.281h7.516v-9.281H103.252z"/>
		<path fill="#0A6494" d="M124.705,21.592c1.073,0.177,2.61,0.267,4.629,0.267h17.299c0.059-0.043,0.412-0.458,1.046-1.242
			c0.717-0.943,1.163-1.411,1.305-1.411c0.4,0,1.025,0.46,1.87,1.37c0.857,0.906,1.282,1.444,1.282,1.646
			c0,0.373-0.188,0.546-0.548,0.546h-3.909v4.332h0.75c0.083-0.035,0.438-0.432,1.05-1.179c0.775-0.869,1.21-1.306,1.355-1.306
			c0.36,0,0.95,0.421,1.764,1.27c0.834,0.879,1.246,1.414,1.246,1.608c0,0.334-0.181,0.499-0.533,0.499h-5.632v4.188
			c0.177-0.195,0.414-0.49,0.717-0.882c0.706-0.878,1.117-1.313,1.245-1.313c0.356,0,0.921,0.436,1.709,1.313
			c0.786,0.856,1.188,1.375,1.188,1.567c0,0.327-0.179,0.492-0.532,0.492h-11.701v3.836h4.881c0.092-0.039,0.461-0.474,1.116-1.309
			c0.79-0.96,1.251-1.442,1.377-1.442c0.414,0,1.054,0.47,1.94,1.41c0.882,0.937,1.343,1.498,1.343,1.707
			c0,0.371-0.224,0.547-0.659,0.547h-9.998v4.856c0,0.438-0.575,0.754-1.742,0.955c-0.493,0.057-0.882,0.1-1.141,0.1
			c-0.682,0-1.026-0.354-1.026-1.055c0.171-1.15,0.248-2.774,0.271-4.856h-5.374c-1.928,0-3.282,0.054-4.058,0.141l-0.529-1.316
			c1.048,0.177,2.577,0.263,4.587,0.263h5.374v-3.836h-7.333c-1.931,0-3.286,0.051-4.072,0.14l-0.557-1.317
			c1.05,0.198,2.543,0.297,4.464,0.297v-4.485h-1.708c-1.904,0-3.259,0.045-4.071,0.159l-0.483-1.318
			c1.046,0.177,2.563,0.267,4.555,0.267h1.708v-4.332c-1.838,0-3.143,0.056-3.907,0.142L124.705,21.592z M123.129,16.843
			c2.013,0.285,3.849,0.419,5.508,0.419h2.788v-0.945c0-1.089-0.082-2.045-0.259-2.882c1.022,0.13,2.268,0.303,3.729,0.52
			c1.361,0.159,2.032,0.393,2.032,0.695c0,0.374-0.36,0.687-1.117,0.951c-0.471,0.146-0.719,0.435-0.719,0.849v0.813h6.036v-1.038
			c0-1.11-0.096-2.084-0.27-2.883c1.034,0.105,2.269,0.271,3.717,0.488c1.364,0.125,2.059,0.364,2.059,0.688
			c0,0.388-0.375,0.7-1.119,0.918c-0.47,0.175-0.717,0.47-0.717,0.881v0.945h3.01c0.099-0.033,0.461-0.487,1.117-1.339
			c0.769-1.029,1.225-1.541,1.379-1.541c0.423,0,1.082,0.493,1.996,1.481c0.945,0.979,1.413,1.577,1.413,1.806
			c0,0.323-0.236,0.489-0.693,0.489h-8.222v1.868c0,0.413-0.566,0.712-1.671,0.913c-0.505,0.064-0.867,0.1-1.084,0.1
			c-0.693,0-1.047-0.212-1.047-0.623c0.087-0.652,0.132-1.134,0.132-1.446v-0.812h-6.036v1.868c0,0.413-0.566,0.712-1.69,0.913
			c-0.495,0.064-0.835,0.1-1.058,0.1c-0.695,0-1.05-0.212-1.05-0.623c0.083-0.652,0.132-1.134,0.132-1.446v-0.812h-3.282
			c-1.787,0-3.282,0.1-4.48,0.288L123.129,16.843z M136.667,27.099v-4.332h-3.801v4.332H136.667z M136.667,32.477v-4.485h-3.801
			v4.485H136.667z M144.136,27.099v-4.332h-3.831v4.332H144.136z M144.136,32.477v-4.485h-3.831v4.485H144.136z"/>
		<path fill="#0A6494" d="M170.828,19.07l0.271,0.391c-1.883,1.947-3.755,3.515-5.615,4.689c-1.244,0.677-1.865,1.093-1.865,1.24
			v0.922c-0.049,0.52-0.179,0.786-0.423,0.786c-0.287,0-0.802-0.621-1.544-1.871c-0.387-0.587-0.882-1.399-1.474-2.461
			C163.063,22.118,166.617,20.888,170.828,19.07z M160.864,16.316c1.094,0.177,2.66,0.264,4.696,0.264
			c0.078-0.016,0.443-0.405,1.078-1.145c0.739-0.892,1.179-1.341,1.306-1.341c0.361,0,0.965,0.44,1.765,1.306
			c0.836,0.853,1.247,1.388,1.247,1.604c0,0.351-0.176,0.523-0.517,0.523h-4.879c-1.942,0-3.342,0.055-4.201,0.142L160.864,16.316z
			 M170.144,38.515c0.919,0.495,1.729,0.942,2.424,1.341c0.938,0.473,1.415,0.854,1.415,1.139c0,0.288-0.224,0.453-0.665,0.494
			c-0.549,0-0.856,0.088-0.916,0.258c-1.198,0.439-2.492,0.831-3.871,1.155c-1.505,0.409-3.924,0.827-7.266,1.243l-0.271-0.527
			c2.059-0.716,3.86-1.494,5.409-2.324C168.216,40.305,169.464,39.377,170.144,38.515z M165.065,25.103
			c1.634,0.389,3.15,0.915,4.552,1.567h11.537c0.391-0.325,0.728-0.62,1.011-0.876c0.307-0.314,0.554-0.515,0.719-0.625
			c-0.472-0.354-0.955-0.729-1.437-1.148c-0.679-0.724-1.293-1.476-1.834-2.264c-0.437,0.676-0.939,1.229-1.508,1.643
			c-0.836,0.677-1.86,1.223-3.077,1.636c-1.332,0.547-3.166,0.924-5.508,1.116l-0.132-0.495c1.482-0.413,2.839-0.967,4.062-1.671
			c0.941-0.522,1.713-1.176,2.331-1.966c0.654-0.697,1.233-1.98,1.729-3.861c1.101,0.235,1.937,0.422,2.528,0.556
			c1.116,0.221,1.67,0.472,1.67,0.747c0,0.314-0.188,0.526-0.589,0.662c-0.481,0.063-0.763,0.187-0.848,0.392
			c-0.025,0.061-0.07,0.13-0.139,0.204c1.265,0.972,2.635,1.728,4.103,2.257c1.837,0.652,3.646,1.112,5.432,1.376v0.621
			c-0.777,0.255-1.362,0.782-1.726,1.572c-0.202,0.631-0.4,0.947-0.601,0.947c-0.188,0-0.517-0.095-0.977-0.293
			c0.211,0.238,0.334,0.415,0.334,0.527c0,0.323-0.231,0.665-0.662,1.016c-0.365,0.366-0.554,0.739-0.554,1.116v1.564l0.264,6.684
			c0,0.424-0.618,0.73-1.836,0.923c-0.51,0.07-0.896,0.094-1.191,0.094c-0.59,0-0.88-0.337-0.88-1.017v-0.123h-12.881v0.386
			c0,0.417-0.556,0.736-1.66,0.955c-0.495,0.066-0.833,0.102-1.061,0.102c-0.788,0-1.172-0.35-1.172-1.057
			c0.174-2.531,0.255-4.756,0.255-6.68v-0.526C165.32,29.509,165.239,27.484,165.065,25.103z M168.958,30.122h12.881v-2.531h-12.881
			V30.122z M168.958,33.497h12.881v-2.46h-12.881V33.497z M168.958,37.068h12.881v-2.626h-12.881V37.068z M173.982,13.341
			c0.982,0.259,1.928,0.534,2.843,0.817c0.896,0.26,1.339,0.542,1.339,0.847c0,0.266-0.234,0.431-0.715,0.494
			c-0.507,0.111-0.79,0.218-0.849,0.322c-0.223,0.402-0.442,0.79-0.69,1.183h8.125c0.435-0.393,0.809-0.693,1.119-0.915
			c0.458-0.46,0.795-0.688,1.008-0.688c0.305,0,1,0.476,2.107,1.415c1.023,0.8,1.528,1.39,1.528,1.765
			c0,0.268-0.244,0.44-0.751,0.523c-0.612,0-0.954,0.029-1.043,0.102c-1.05,0.807-2.369,1.604-3.969,2.387l-0.497-0.266
			c0.43-1.106,0.768-2.256,1.05-3.432h-9.27c-0.375,0.548-0.774,1.027-1.209,1.44c-0.896,0.939-2.071,1.896-3.542,2.886
			l-0.424-0.362c1.045-1.442,1.844-2.76,2.386-3.964C173.121,16.631,173.603,15.113,173.982,13.341z M177.215,39.123
			c2.624,0.054,4.726,0.229,6.299,0.531c1.33,0.236,2.392,0.621,3.185,1.145c0.608,0.42,0.91,0.959,0.91,1.635
			c0,0.555-0.146,0.994-0.456,1.316c-0.354,0.268-0.764,0.395-1.247,0.395c-0.553,0-1.488-0.504-2.821-1.511
			c-1.332-0.963-3.366-1.902-6.126-2.822L177.215,39.123z"/>
		<path fill="#0A6494" d="M196.729,20.289c1.047,0.15,2.56,0.226,4.562,0.226h3.143c0.114-0.027,0.481-0.469,1.116-1.347
			c0.786-1,1.248-1.499,1.376-1.499c0.46,0,1.141,0.489,2.071,1.464c0.914,0.967,1.367,1.555,1.367,1.771
			c0,0.377-0.229,0.562-0.688,0.562h-8.385c-1.906,0-3.257,0.037-4.068,0.126L196.729,20.289z M198.279,15.699
			c1.063,0.177,2.589,0.266,4.58,0.266h0.815c0.076-0.054,0.405-0.443,0.993-1.182c0.668-0.902,1.081-1.349,1.208-1.349
			c0.368,0,0.956,0.44,1.732,1.313c0.797,0.872,1.187,1.399,1.187,1.568c0,0.354-0.187,0.526-0.552,0.526h-5.384
			c-1.898,0-3.252,0.058-4.062,0.161L198.279,15.699z M198.279,29.037c1.063,0.177,2.589,0.256,4.58,0.256h0.815
			c0.076-0.021,0.412-0.392,1.053-1.109c0.715-0.896,1.162-1.352,1.317-1.352c0.374,0,0.961,0.442,1.759,1.318
			c0.838,0.827,1.253,1.358,1.253,1.57c0,0.35-0.179,0.523-0.555,0.523h-5.643c-1.898,0-3.252,0.047-4.062,0.134L198.279,29.037z
			 M198.279,32.339c1.411,0.38,2.846,0.904,4.281,1.58h1.483c0.504-0.554,0.964-1.013,1.375-1.411
			c0.306-0.393,0.601-0.588,0.884-0.588c0.256,0,0.867,0.306,1.836,0.918c1.116,0.782,1.668,1.323,1.668,1.604
			c0,0.28-0.21,0.595-0.65,0.919c-0.352,0.264-0.526,0.551-0.526,0.881v2.272c0,1.013,0.061,2.413,0.165,4.186
			c0,0.409-0.564,0.733-1.704,0.952c-0.481,0.064-0.836,0.098-1.046,0.098c-0.611,0-0.923-0.35-0.923-1.05v-1.442h-3.019v1.705
			c0,0.438-0.52,0.754-1.565,0.955c-0.483,0.057-0.836,0.1-1.059,0.1c-0.715,0-1.07-0.354-1.07-1.055
			c0.083-1.135,0.128-2.271,0.128-3.41v-2.484C198.537,35.425,198.457,33.849,198.279,32.339z M198.409,24.614
			c1.06,0.153,2.585,0.225,4.578,0.225h0.819c0.073-0.024,0.425-0.425,1.047-1.211c0.751-0.943,1.191-1.407,1.317-1.407
			c0.388,0,1.012,0.451,1.872,1.371c0.845,0.901,1.271,1.443,1.271,1.636c0,0.377-0.181,0.566-0.519,0.566h-5.808
			c-1.896,0-3.235,0.039-4.025,0.126L198.409,24.614z M202.104,40.305h3.019V34.8h-3.019V40.305z M209.057,15.4
			c1.308,0.2,2.702,0.299,4.195,0.299h6.389c0.377-0.555,0.729-1.018,1.082-1.411c0.411-0.484,0.716-0.724,0.919-0.724
			c0.35,0,1.162,0.489,2.421,1.475c1.009,0.767,1.508,1.324,1.508,1.674c0,0.264-0.311,0.545-0.918,0.857
			c-0.624,0.283-0.951,0.664-0.951,1.144c0,8.1,0.196,13.387,0.598,15.857c0.459,2.076,0.882,3.109,1.271,3.109
			c0.163,0,0.396-0.625,0.728-1.891c0.153-0.729,0.389-1.694,0.717-2.925l0.657,0.266l-0.126,5.384c0,0.585,0.059,1.226,0.187,1.926
			c0.12,0.629,0.162,1.034,0.162,1.212c0,0.942-0.471,1.445-1.396,1.535c-0.621,0-1.352-0.225-2.199-0.684
			c-1.01-0.779-1.826-1.898-2.459-3.339c-0.658-1.595-1.106-3.688-1.354-6.259c-0.282-3.547-0.42-8.979-0.42-16.326h-4.06v11.698
			h0.386c0.2-0.328,0.45-0.771,0.729-1.347c0.345-0.764,0.587-1.138,0.722-1.138c0.233,0,0.656,0.433,1.28,1.305
			c0.626,0.787,0.942,1.314,0.942,1.578c0,0.325-0.144,0.49-0.425,0.49h-3.635v13.927c0,0.434-0.589,0.756-1.778,0.947
			c-0.493,0.071-0.871,0.104-1.116,0.104c-0.599,0-0.902-0.359-0.902-1.051c0.14-1.223,0.222-2.975,0.222-5.276v-8.65h-0.098
			c-0.678,0-1.561,0.047-2.657,0.126l-0.493-1.302c1.352,0.192,2.399,0.287,3.15,0.287h0.098V16.58
			c-1.118,0.021-2.085,0.064-2.881,0.133L209.057,15.4z"/>
		<path fill="#0A6494" d="M251.742,21.202c0.328,0,0.949,0.377,1.868,1.143c0.846,0.745,1.271,1.283,1.271,1.607
			c0,0.242-0.262,0.462-0.788,0.662c-0.411,0.174-0.636,0.437-0.646,0.776l-1.156,8.796h4.598l0.249-5.149
			c-1.047,0.018-1.928,0.107-2.644,0.256l-0.565-1.566c0.881,0.174,1.964,0.292,3.259,0.363l0.245-4.914
			c-1,0.016-1.845,0.095-2.552,0.224l-0.52-1.541c0.849,0.174,1.895,0.285,3.146,0.323l0.224-4.92c-1.192,0-2.241,0.055-3.111,0.144
			l-0.526-1.316c1.314,0.159,2.407,0.228,3.28,0.228c0.375-0.369,0.74-0.729,1.118-1.081c0.507-0.477,0.86-0.718,1.082-0.718
			c0.386,0,1.011,0.354,1.872,1.046c0.949,0.747,1.435,1.225,1.435,1.44c0,0.33-0.307,0.635-0.918,0.92
			c-0.567,0.353-0.871,0.7-0.92,1.046l-0.647,15.217h0.354c0.224-0.554,0.456-1.12,0.719-1.71c0.372-0.787,0.702-1.179,1.022-1.179
			c0.284,0,0.649,0.329,1.082,0.98c0.672,1.051,1.012,1.817,1.012,2.293c0,0.331-0.212,0.49-0.658,0.49H237.32
			c-1.025,0-2.085,0.059-3.189,0.163l-0.484-1.306c1.296,0.128,2.329,0.213,3.122,0.268l-0.367-13.147
			c0-1.728-0.178-3.512-0.527-5.34l3.372,1.144c0.202-0.198,0.413-0.402,0.623-0.619c0.838-0.831,1.518-1.718,2.032-2.659
			c0.946,0.619,1.819,1.171,2.629,1.671c0.613,0.464,1.002,0.817,1.142,1.052c0.196-1.229,0.291-2.253,0.291-3.09
			c1.529,0.332,2.764,0.619,3.709,0.856c1.012,0.266,1.502,0.54,1.502,0.821c0,0.353-0.306,0.59-0.902,0.726
			c-0.533,0.146-0.875,0.388-1.024,0.716l-0.385,1.965h1.041c0.036,0,0.318-0.289,0.814-0.876c0.727-0.877,1.185-1.316,1.389-1.316
			c0.232,0,0.916,0.491,2.019,1.481c0.663,0.605,0.991,0.986,0.991,1.144c0,0.326-0.168,0.491-0.497,0.491h-5.963l-0.751,3.703
			h1.703c0.413-0.373,0.779-0.715,1.083-1.014C251.161,21.431,251.52,21.202,251.742,21.202z M242.399,36.113
			c0.978,0.562,1.844,1.045,2.59,1.446c0.974,0.522,1.482,0.924,1.482,1.206c0,0.264-0.236,0.419-0.697,0.456
			c-0.575,0-0.895,0.114-0.988,0.331c-1.127,0.809-2.35,1.517-3.668,2.131c-1.459,0.738-3.791,1.517-6.987,2.334l-0.247-0.566
			c1.917-1.006,3.598-2.106,5.045-3.31C240.623,38.75,241.79,37.405,242.399,36.113z M244.398,21.827
			c0.497-1.928,0.885-3.612,1.142-5.053c-0.059,0.049-0.152,0.068-0.257,0.068l-1.671-0.13c-0.966,0.437-2.282,0.875-3.93,1.31
			l0.095,4.322h0.821c0.014,0,0.259-0.258,0.72-0.781c0.635-0.758,1.034-1.147,1.21-1.147c0.211,0,0.799,0.437,1.779,1.317
			C244.339,21.769,244.373,21.807,244.398,21.827z M247.738,23.787l-0.069,0.429c0,0.461-0.657,0.711-1.964,0.757
			c-1.332,0-1.999-0.256-1.999-0.757c0.116-0.33,0.198-0.631,0.258-0.919h-4.187l0.125,4.854h0.696c0.014,0,0.238-0.238,0.65-0.726
			c0.61-0.668,0.999-1.018,1.15-1.018c0.165,0,0.693,0.406,1.564,1.218c0.271,0.217,0.468,0.399,0.59,0.559
			c0.092-0.836,0.172-1.541,0.232-2.134c0.721,0.088,1.752,0.318,3.081,0.687c0.918,0.225,1.38,0.473,1.38,0.756
			c0,0.157-0.24,0.295-0.685,0.426c-0.636,0.073-0.977,0.271-1.021,0.62l-0.485,5.648h1.601l1.639-10.399H247.738z M243.776,34.187
			c0.263-1.995,0.484-3.707,0.681-5.149c-0.025,0-0.033,0-0.059,0h-4.496l0.17,5.149H243.776z M251.996,36.667
			c3.003,0.526,5.414,1.14,7.249,1.848c2.595,0.911,3.906,1.868,3.906,2.874c0,0.748-0.205,1.322-0.6,1.732
			c-0.543,0.596-1.097,0.896-1.674,0.896c-0.587,0-1.198-0.365-1.834-1.089c-0.791-0.919-1.892-1.96-3.308-3.145
			c-0.703-0.638-2.066-1.502-4.127-2.591L251.996,36.667z"/>
		<path fill="#0A6494" d="M282.615,17.142c-1.047,0.153-2.058,0.299-3.046,0.456v5.578h0.129c0.12-0.055,0.492-0.491,1.119-1.317
			c0.786-0.963,1.245-1.442,1.373-1.442c0.436,0,1.095,0.472,1.978,1.411c0.892,0.936,1.341,1.506,1.341,1.708
			c0,0.364-0.236,0.553-0.685,0.553h-5.255v1.832c1.728,0.703,2.963,1.336,3.704,1.906c0.871,0.652,1.316,1.242,1.316,1.765
			c0,0.716-0.21,1.335-0.625,1.832c-0.395,0.501-0.832,0.757-1.35,0.757c-0.342,0-0.646-0.079-0.905-0.229
			c-0.222-0.171-0.494-0.777-0.824-1.809c-0.198-0.765-0.638-1.604-1.316-2.517v15.203c0,0.423-0.577,0.733-1.729,0.946
			c-0.507,0.075-0.893,0.102-1.155,0.102c-0.59,0-0.88-0.349-0.88-1.048c0.176-1.223,0.256-2.973,0.256-5.269v-6.563
			c-0.825,1.512-1.585,2.674-2.291,3.475c-0.812,1.07-1.708,2.023-2.716,2.853l-0.497-0.255c2.544-4.504,4.281-8.829,5.248-12.98
			h-0.569c-1.886,0-3.242,0.037-4.053,0.128l-0.519-1.308c1.059,0.177,2.587,0.268,4.571,0.268h0.825v-5.184
			c-1.609,0.152-3.142,0.254-4.584,0.289l-0.294-0.754c2.517-0.563,4.386-1.121,5.608-1.664c1.305-0.527,2.633-1.292,3.964-2.299
			c1.022,0.794,1.846,1.392,2.46,1.804c0.918,0.701,1.374,1.196,1.374,1.475c0,0.285-0.174,0.419-0.53,0.419L282.615,17.142z
			 M298.354,30.122c0.184,0,0.727,0.276,1.602,0.849c1.113,0.719,1.68,1.184,1.68,1.368c0,0.44-0.129,0.664-0.4,0.664l-4.328,0.594
			v3.472c0,2.031,0.046,4.037,0.142,6.025c0,0.434-0.601,0.756-1.777,0.947c-0.527,0.071-0.895,0.104-1.117,0.104
			c-0.775,0-1.174-0.359-1.174-1.051c0.174-2.205,0.258-4.226,0.258-6.025v-2.953l-7.365,1.046
			c-0.881,0.151-1.622,0.327-2.231,0.528l-1.025-1.382c0.768,0,1.751-0.059,2.952-0.192l7.67-1.049V19.888
			c0-2.36-0.084-4.423-0.258-6.186c1.069,0.102,2.421,0.314,4.068,0.617c1.13,0.136,1.704,0.362,1.704,0.686
			c0,0.372-0.363,0.652-1.091,0.858c-0.497,0.125-0.755,0.366-0.755,0.717v15.633c0.2-0.375,0.401-0.734,0.587-1.077
			C297.87,30.46,298.152,30.122,298.354,30.122z M284.59,25.103c2.473,0.565,4.176,1.183,5.141,1.829
			c0.848,0.596,1.282,1.296,1.282,2.105c0,0.631-0.269,1.226-0.824,1.765c-0.34,0.425-0.812,0.621-1.409,0.621
			c-0.588,0-1.094-0.515-1.546-1.539c-0.538-1.458-1.515-2.875-2.914-4.228L284.59,25.103z M286.391,17.142
			c2.247,0.563,3.812,1.18,4.69,1.828c0.719,0.641,1.072,1.38,1.072,2.232c0,0.613-0.257,1.207-0.773,1.773
			c-0.377,0.369-0.848,0.56-1.414,0.56c-0.506,0-0.938-0.53-1.318-1.578c-0.476-1.47-1.303-2.901-2.479-4.288L286.391,17.142z"/>
		<path fill="#0A6494" d="M307.703,21.039c1.072,0.192,2.602,0.287,4.586,0.287h0.295v-4.613c0-0.613-0.094-1.708-0.295-3.278
			c1.777,0.268,2.932,0.484,3.475,0.66c1.363,0.264,2.035,0.563,2.035,0.91c0,0.313-0.275,0.596-0.816,0.858
			c-0.586,0.125-0.881,0.366-0.881,0.717v4.158c0.139-0.175,0.295-0.363,0.457-0.587c0.721-0.869,1.135-1.304,1.24-1.304
			c0.396,0,0.969,0.435,1.738,1.304c0.764,0.853,1.143,1.38,1.143,1.582c0,0.324-0.166,0.487-0.484,0.487h-4.094v6.093
			c1.223-0.198,2.41-0.396,3.563-0.587l0.26,0.552c-1.281,0.746-2.563,1.433-3.822,2.067v9.867c0,1.354-0.389,2.299-1.152,2.854
			c-0.893,0.627-1.775,0.951-2.66,0.951c-0.305,0-0.492-0.324-0.551-0.951c-0.178-1.008-1.342-2-3.506-2.987l0.154-0.653
			c1.539,0.351,2.668,0.523,3.41,0.523c0.527,0,0.787-0.173,0.787-0.523v-7.535c-0.613,0.236-1.234,0.464-1.869,0.688
			c-0.211,0.063-0.377,0.253-0.479,0.552c-0.096,0.128-0.18,0.307-0.271,0.524c-0.158,0.354-0.379,0.531-0.684,0.531
			c-0.26,0-0.588-0.857-0.99-2.56c-0.129-0.464-0.326-1.238-0.588-2.334c1.682-0.148,3.314-0.315,4.881-0.49v-6.582h-0.295
			c-1.893,0-3.258,0.041-4.057,0.124L307.703,21.039z M320.195,19.597c1.043,0.197,2.563,0.291,4.555,0.291h1.08v-1.04
			c0-1.972-0.086-3.727-0.258-5.283c0.996,0.112,2.305,0.311,3.889,0.594c1.248,0.171,1.871,0.386,1.871,0.625
			c0,0.346-0.361,0.664-1.08,0.947c-0.506,0.157-0.756,0.433-0.756,0.85v3.308h2.334c0.08-0.035,0.48-0.507,1.174-1.407
			c0.836-1.087,1.316-1.638,1.447-1.638c0.459,0,1.164,0.523,2.129,1.576c0.953,1.028,1.434,1.646,1.434,1.87
			c0,0.327-0.225,0.488-0.684,0.488h-7.834v5.508h1.58c0.494-0.681,0.951-1.163,1.373-1.446c0.342-0.322,0.627-0.487,0.811-0.487
			c0.418,0,1.168,0.416,2.236,1.242c1.07,0.853,1.613,1.446,1.613,1.767c0,0.328-0.32,0.611-0.932,0.854
			c-0.41,0.198-0.635,0.44-0.645,0.724c-0.857,2.535-1.73,4.485-2.621,5.861c-0.611,0.876-1.262,1.673-1.941,2.394
			c0.396,0.201,0.811,0.396,1.246,0.59c1.551,0.731,3.574,1.352,6.068,1.902l-0.127,0.755c-0.992,0.126-1.746,0.755-2.268,1.87
			c-0.297,0.764-0.555,1.141-0.762,1.141c-0.381,0-1.326-0.357-2.805-1.08c-1.377-0.719-2.744-1.719-4.072-2.98
			c-1.484,0.979-2.902,1.738-4.258,2.262c-1.914,0.805-4.105,1.512-6.551,2.098l-0.273-0.563c1.977-0.782,3.697-1.582,5.188-2.389
			c1.236-0.674,2.52-1.614,3.826-2.815c0.139-0.13,0.281-0.263,0.436-0.395c-0.918-1.116-1.684-2.364-2.297-3.74
			c-0.785-1.677-1.52-3.88-2.199-6.589c-0.609,0.027-1.143,0.065-1.576,0.101l-0.482-1.311c1.389,0.159,2.754,0.235,4.061,0.235
			h1.705v-5.508h-1.08c-1.908,0-3.262,0.044-4.07,0.127L320.195,19.597z M323.111,27.238c0.316,1.063,0.883,2.28,1.672,3.635
			c0.977,1.769,2.078,3.223,3.303,4.352c0.119,0.088,0.223,0.177,0.33,0.264c0.354-0.539,0.711-1.131,1.08-1.768
			c0.994-1.708,1.721-3.862,2.189-6.482h-7.561C323.723,27.238,323.395,27.238,323.111,27.238z"/>
		<path fill="#0A6494" d="M345.58,18.022c1.045,0.173,2.564,0.259,4.551,0.259v-1.965c0-0.869-0.084-1.781-0.225-2.752
			c1.33,0.138,2.646,0.33,3.93,0.594c0.787,0.025,1.174,0.224,1.174,0.625c0,0.122-0.225,0.287-0.682,0.487
			c-0.527,0.244-0.789,0.518-0.789,0.818v1.934c0.178-0.153,0.379-0.384,0.625-0.688c0.635-0.747,1-1.11,1.105-1.11
			c0.342,0,0.848,0.363,1.553,1.11c0.059,0.071,0.131,0.132,0.188,0.193c0.578-1.028,1.084-2.066,1.539-3.146
			c1.166,0.613,2.123,1.164,2.896,1.639c0.928,0.508,1.4,0.919,1.4,1.241c0,0.336-0.305,0.505-0.918,0.505l-1.01-0.098
			c-1.707,2.357-3.189,4.237-4.422,5.628h1.666c0.07-0.035,0.344-0.389,0.822-1.049c0.65-0.81,1.023-1.209,1.109-1.209
			c0.375,0,0.916,0.399,1.648,1.209c0.008,0.021,0.033,0.047,0.055,0.074c0.178-0.337,0.305-0.66,0.402-0.996
			c0.717-2.286,1.344-4.99,1.857-8.129c1.164,0.32,2.283,0.632,3.373,0.961c1.074,0.307,1.613,0.631,1.613,0.982
			c0,0.374-0.289,0.596-0.893,0.681c-0.555,0.111-0.895,0.248-0.977,0.402c-0.553,1.787-1.201,3.391-1.93,4.815h3.799
			c0.037,0,0.379-0.352,1.014-1.052c0.881-1.029,1.459-1.541,1.74-1.541c0.256,0,1.014,0.574,2.258,1.705
			c0.766,0.701,1.152,1.142,1.152,1.314c0,0.326-0.234,0.491-0.693,0.491h-1.6c-0.248,4.033-0.742,7.146-1.508,9.305
			c-0.656,1.906-1.469,3.565-2.43,4.98c0.395,0.419,0.795,0.8,1.207,1.152c1.555,1.28,3.318,2.346,5.283,3.172l-0.26,0.563
			c-0.752,0.09-1.342,0.688-1.811,1.8c-0.367,0.724-0.635,1.089-0.814,1.089c-0.705,0-1.881-0.877-3.539-2.629
			c-0.857-0.869-1.613-1.766-2.258-2.654c-0.623,0.566-1.266,1.077-1.979,1.541c-2.115,1.482-4.516,2.732-7.209,3.742l-0.389-0.688
			c1.637-0.795,3.26-1.915,4.85-3.354c1.221-1.087,2.301-2.317,3.244-3.698c-0.438-0.854-0.793-1.73-1.047-2.623
			c-0.74-2.685-1.186-5.631-1.34-8.816c-0.814,1.12-1.74,2.25-2.789,3.411c0.438,0.419,0.66,0.718,0.66,0.917
			c0,0.303-0.438,0.478-1.32,0.53c-0.738,0.035-1.223,0.136-1.432,0.287c-0.885,0.548-1.67,1.03-2.365,1.438
			c1.031,0.22,1.539,0.479,1.539,0.757c0,0.328-0.268,0.6-0.822,0.823c-0.131,0.04-0.236,0.083-0.318,0.128
			c2.094-0.352,4.105-0.753,6.025-1.211l0.258,0.557c-2.225,1.179-4.494,2.193-6.811,3.051v4.777c0,1.335-0.426,2.272-1.285,2.789
			c-0.986,0.611-1.949,0.924-2.912,0.924c-0.26,0-0.438-0.301-0.533-0.896c-0.141-0.936-1.16-1.875-3.045-2.816l0.145-0.619
			c1.607,0.264,2.797,0.394,3.561,0.394c0.426,0,0.625-0.182,0.625-0.526v-2.944c-1.105,0.304-2.236,0.573-3.377,0.817
			c-0.541,0.069-0.809,0.192-0.809,0.392c-0.051,0.154-0.096,0.315-0.145,0.493c-0.057,0.309-0.189,0.455-0.391,0.455
			c-0.41,0-0.916-0.766-1.502-2.293c-0.176-0.413-0.457-1.089-0.859-2.03c2.457-0.193,4.807-0.433,7.082-0.722
			c-0.012-0.635-0.105-1.631-0.262-2.985c0.895,0.157,1.625,0.279,2.201,0.361c0.305-0.677,0.635-1.441,0.975-2.294h-1.174
			c-1.449,0-2.801,0.077-4.07,0.234l-0.188-0.527c-1.352,0.635-2.918,1.258-4.693,1.868l-0.387-0.52
			c3.162-1.708,5.668-3.524,7.5-5.444c0.072-0.063,0.145-0.134,0.225-0.198h-3.01c-1.906,0-3.26,0.047-4.061,0.136l-0.527-1.317
			c1.072,0.175,2.602,0.263,4.588,0.263h0.918v-4.092c-1.895,0-3.258,0.042-4.061,0.13L345.58,18.022z M359.43,27.563
			c0.627-1.162,1.17-2.27,1.65-3.347h-5.469c-0.48,0.479-0.941,0.899-1.355,1.248c-0.787,0.763-1.844,1.522-3.172,2.263
			c0.871,0.088,1.787,0.125,2.752,0.125h1.01c0.354-0.344,0.635-0.627,0.857-0.847c0.639-0.637,1.109-0.955,1.412-0.955
			c0.367,0,1.072,0.443,2.096,1.311C359.295,27.451,359.373,27.514,359.43,27.563z M353.539,22.672
			c0.896-1.108,1.719-2.271,2.484-3.467h-2.484V22.672z M363.74,23.692c0.105,1.135,0.352,2.507,0.754,4.095
			c0.492,1.924,1.162,3.676,1.998,5.246c0.129,0.222,0.258,0.422,0.389,0.622c0.633-1.245,1.102-2.514,1.408-3.797
			c0.637-2.233,0.967-4.868,1.016-7.901h-4.52c-0.248,0.433-0.48,0.829-0.729,1.178C363.949,23.31,363.846,23.498,363.74,23.692z"/>
		<path fill="#0A6494" d="M394.521,13.197c1.457,0.144,2.869,0.32,4.232,0.534c0.838,0.037,1.268,0.266,1.268,0.65
			c0,0.162-0.244,0.354-0.725,0.59c-0.563,0.264-0.852,0.592-0.852,0.993v1.704h7.906c0.088-0.054,0.457-0.51,1.119-1.382
			c0.766-1.005,1.213-1.504,1.367-1.504c0.41,0,1.094,0.487,1.994,1.47c0.945,0.964,1.418,1.549,1.418,1.77
			c0,0.371-0.215,0.558-0.662,0.558h-15.174c-1.484,1.529-2.916,2.905-4.313,4.13c3.814-0.194,7.697-0.478,11.654-0.852
			c-0.695-0.616-1.463-1.183-2.297-1.707l0.297-0.69c2.107,0.46,3.775,0.967,5.018,1.51c1.203,0.573,2.084,1.185,2.654,1.839
			c0.48,0.523,0.727,1.076,0.727,1.663c0,0.578-0.215,1.071-0.627,1.486c-0.375,0.474-0.822,0.711-1.338,0.711
			c-0.379,0-1.129-0.817-2.27-2.454c-0.34-0.479-0.719-0.919-1.121-1.308c-5,1.372-10.68,2.406-17.061,3.109
			c1.139,0.351,2.275,0.796,3.439,1.343h11.727c0.357-0.352,0.615-0.639,0.791-0.883c0.66-0.631,1.104-0.947,1.342-0.947
			c0.35,0,1.082,0.401,2.199,1.206c1.07,0.791,1.602,1.354,1.602,1.677c0,0.242-0.252,0.542-0.758,0.917
			c-0.645,0.458-0.969,0.886-0.969,1.279v10.26c0,1.178-0.605,2.063-1.783,2.686c-0.939,0.48-1.738,0.713-2.424,0.713
			c-0.277,0-0.539-0.418-0.783-1.268c-0.352-1.013-1.65-1.864-3.896-2.56l0.129-0.629c1.875,0.177,3.402,0.268,4.551,0.268
			c0.365,0,0.557-0.366,0.557-1.077v-2.071H390.32v6.257c0,0.465-0.541,0.787-1.631,0.987c-0.488,0.064-0.857,0.093-1.119,0.093
			c-0.684,0-1.01-0.35-1.01-1.08c0.076-1.15,0.123-2.318,0.123-3.502v-9.206c0-1.462-0.078-2.904-0.217-4.328
			c-0.072,0-0.146,0-0.203,0c-0.141,0-0.236,0.217-0.293,0.656c-0.119,0.452-0.266,0.685-0.467,0.685
			c-0.475,0-0.881-0.57-1.203-1.698c-0.25-0.613-0.592-1.578-1.061-2.886c2.082,0,4.152-0.035,6.201-0.099
			c0.74-1.246,1.479-2.658,2.232-4.229h-5.113c-1.791,0-3.293,0.089-4.498,0.268l-0.516-1.586c2.004,0.266,3.838,0.407,5.508,0.407
			h7.762v-1.58C394.816,15.145,394.725,14.193,394.521,13.197z M390.32,31.561h13.141v-3.282H390.32V31.561z M390.32,36.015h13.141
			v-3.538H390.32V36.015z"/>
		<path fill="#0A6494" d="M427.797,13.564c0.832,0.476,1.543,0.891,2.131,1.219c0.818,0.435,1.246,0.78,1.246,1.038
			c0,0.18-0.211,0.292-0.627,0.334c-0.537,0-0.857,0.057-0.949,0.161c-0.566,0.133-1.156,0.248-1.773,0.328
			c-0.547,0.068-1.305,0.144-2.254,0.231l0.061,2.585h0.463c0.018,0,0.24-0.227,0.68-0.686c0.598-0.677,0.977-1.009,1.154-1.009
			c0.17,0,0.693,0.401,1.539,1.203c0.551,0.464,0.813,0.762,0.813,0.918c0,0.352-0.129,0.528-0.428,0.528h-4.221l0.096,3.371h0.496
			c0.018,0,0.242-0.224,0.654-0.685c0.613-0.674,0.998-1.016,1.174-1.016c0.182,0,0.701,0.411,1.547,1.21
			c0.553,0.484,0.824,0.791,0.824,0.919c0,0.328-0.143,0.493-0.439,0.493h-4.256l0.066,2.783h16.061l0.164-2.878
			c-1.447,0-2.617,0.026-3.508,0.095l-0.494-1.31c1.115,0.176,2.459,0.262,4.035,0.262l0.199-3.146c-1.533,0-2.771,0.043-3.74,0.13
			l-0.494-1.31c1.189,0.177,2.613,0.262,4.293,0.262l0.133-2.754c-1.461,0-2.723,0.058-3.766,0.161l-0.551-1.305
			c1.586,0.177,2.918,0.266,3.965,0.266c0.363-0.401,0.738-0.754,1.115-1.09c0.494-0.517,0.869-0.78,1.105-0.78
			c0.354,0,0.967,0.351,1.834,1.046c0.967,0.765,1.447,1.248,1.447,1.439c0,0.349-0.34,0.663-1.01,0.947
			c-0.604,0.329-0.922,0.678-0.965,1.053l-0.355,7.765c0.332-0.282,0.578-0.425,0.754-0.425c0.281,0,0.939,0.448,1.965,1.34
			c0.939,0.79,1.412,1.349,1.412,1.679c0,0.256-0.248,0.421-0.754,0.493c-0.607,0-0.963,0.05-1.047,0.159
			c-1.094,0.683-2.445,1.38-4.066,2.099l-0.523-0.267c0.57-0.975,1.047-1.979,1.439-3.01h-22.443
			c-0.049,0.695-0.107,1.242-0.162,1.638c-0.154,0.763-0.406,1.31-0.725,1.639c-0.221,0.148-0.441,0.23-0.652,0.23
			c-0.66,0-1.215-0.187-1.668-0.56c-0.383-0.323-0.57-0.788-0.57-1.376c0-0.264,0.283-0.581,0.859-0.947
			c0.611-0.352,1.098-0.759,1.434-1.211c0.326-0.413,0.615-1.054,0.822-1.906l0.689,0.13c0,0.529,0,1.014-0.027,1.442h0.783
			l-0.23-7.729c0-1.578-0.18-3.199-0.525-4.889l3.182,1.146c0.389-0.232,0.764-0.506,1.119-0.81
			C427.018,14.638,427.508,14.095,427.797,13.564z M424.088,30.609c1.381,0.283,2.906,0.428,4.59,0.428h7.998
			c0.377-0.329,0.658-0.589,0.852-0.793c0.605-0.541,1.08-0.813,1.408-0.813c0.375,0,1.055,0.438,2.07,1.341
			c1.045,0.87,1.563,1.486,1.563,1.83c0,0.287-0.426,0.454-1.301,0.491c-0.721,0.049-1.201,0.138-1.451,0.264
			c-1.131,0.551-2.166,1.01-3.111,1.382c0.16,0.109,0.225,0.218,0.225,0.322c0,0.334-0.266,0.604-0.809,0.823
			c-0.443,0.104-0.709,0.275-0.822,0.493h7.27c0.096-0.025,0.463-0.478,1.117-1.341c0.789-1.027,1.262-1.54,1.418-1.54
			c0.43,0,1.111,0.487,2.033,1.468c0.914,0.991,1.369,1.596,1.369,1.84c0,0.35-0.221,0.519-0.656,0.519h-12.586v3.243
			c0,1.381-0.432,2.335-1.307,2.861c-0.963,0.645-1.938,0.975-2.914,0.975c-0.307,0-0.508-0.311-0.588-0.951
			c-0.154-1.006-1.365-2.004-3.609-3.011l0.141-0.629c1.775,0.33,3.107,0.493,3.949,0.493c0.533,0,0.789-0.163,0.789-0.493v-2.488
			h-8.549c-1.904,0-3.246,0.027-4.035,0.103l-0.557-1.313c1.074,0.176,2.6,0.265,4.592,0.265h8.549
			c-0.01-0.639-0.119-1.594-0.295-2.881c1.779,0.278,2.928,0.499,3.471,0.65c0,0.025,0.016,0.039,0.043,0.039
			c0.625-0.66,1.248-1.419,1.863-2.267h-8.129c-1.412,0-2.762,0.083-4.035,0.26L424.088,30.609z M434.748,20.151
			c0.766,0.393,1.42,0.744,1.957,1.051c0.795,0.39,1.184,0.692,1.184,0.885c0,0.24-0.201,0.395-0.621,0.458
			c-0.486,0-0.756,0.077-0.814,0.222c-0.199,0.178-0.387,0.354-0.566,0.53c0.484,0.288,0.855,0.589,1.121,0.919
			c0.408,0.398,0.623,0.835,0.623,1.314c0,0.415-0.168,0.782-0.492,1.112c-0.262,0.397-0.578,0.596-0.953,0.596
			c-0.338,0-0.992-0.659-1.971-1.97c-0.131-0.153-0.258-0.309-0.379-0.468c-0.992,0.663-2.477,1.337-4.463,2.031l-0.139-0.425
			c1.221-0.863,2.305-1.816,3.209-2.844h0.045c-0.65-0.529-1.328-1.019-2.066-1.477l0.26-0.495c1.09,0.2,2.045,0.428,2.852,0.688
			C434.057,21.563,434.469,20.853,434.748,20.151z M434.879,13.435c0.764,0.416,1.416,0.776,1.961,1.083
			c0.791,0.371,1.176,0.662,1.176,0.883c0,0.257-0.199,0.405-0.611,0.421c-0.482,0-0.766,0.09-0.82,0.268
			c-0.121,0.109-0.223,0.228-0.33,0.36c0.33,0.238,0.586,0.504,0.791,0.791c0.385,0.389,0.586,0.841,0.586,1.34
			c0,0.417-0.168,0.791-0.492,1.118c-0.262,0.388-0.578,0.591-0.953,0.591c-0.311,0-0.9-0.679-1.764-2.031
			c-0.838,0.696-2.088,1.415-3.74,2.158l-0.135-0.39c0.957-0.923,1.813-1.922,2.555-2.987c0.043-0.047,0.08-0.11,0.107-0.196
			c-0.66-0.631-1.412-1.242-2.273-1.838l0.238-0.487c1.139,0.241,2.104,0.506,2.91,0.788
			C434.428,14.669,434.701,14.04,434.879,13.435z"/>
		<path fill="#0A6494" d="M468.646,13.077c1.174,0.354,2.211,0.641,3.105,0.877c1.166,0.351,1.742,0.658,1.742,0.921
			c0,0.336-0.342,0.537-1.014,0.624c-0.115,0.047-0.215,0.074-0.295,0.102c1.916,0.827,3.902,1.488,5.963,1.997
			c2.707,0.588,5.396,1,8.061,1.25l-0.135,0.749c-0.912,0.303-1.561,0.947-1.936,1.935c-0.234,0.738-0.508,1.113-0.814,1.113
			c-0.482,0-1.645-0.364-3.506-1.081c-1.906-0.699-3.713-1.596-5.445-2.691c-1.258-0.826-2.363-1.677-3.303-2.556
			c-1.783,1.598-3.674,2.893-5.707,3.903c-1.418,0.808-3.115,1.596-5.076,2.355c0.914,0.31,1.846,0.675,2.781,1.086h14.354
			c0.457-0.483,0.916-0.914,1.344-1.316c0.316-0.325,0.6-0.486,0.857-0.486c0.283,0,0.906,0.297,1.865,0.889
			c1.129,0.763,1.707,1.292,1.707,1.604c0,0.283-0.176,0.575-0.527,0.876c-0.281,0.293-0.424,0.594-0.424,0.924v1.087
			c0,1.021,0.047,2.417,0.131,4.185c0,0.415-0.541,0.739-1.637,0.955c-0.479,0.065-0.859,0.099-1.115,0.099
			c-0.51,0-0.801-0.264-0.885-0.787h-16.164c0,0.323-0.326,0.603-0.973,0.818c1.307,0.398,2.621,0.912,3.967,1.539h10.146
			c0.459-0.521,0.92-0.965,1.352-1.346c0.33-0.347,0.617-0.521,0.846-0.521c0.283,0,0.92,0.311,1.906,0.914
			c1.109,0.79,1.67,1.316,1.67,1.576c0,0.354-0.219,0.691-0.686,1.02c-0.336,0.281-0.49,0.611-0.49,0.978v1.702
			c0,1.057,0.039,2.5,0.135,4.331c0,0.409-0.582,0.733-1.748,0.952c-0.523,0.064-0.9,0.098-1.137,0.098
			c-0.633,0-0.953-0.35-0.953-1.05v-0.267h-11.771v0.395c0,0.423-0.52,0.733-1.564,0.946c-0.486,0.075-0.84,0.102-1.049,0.102
			c-0.732,0-1.098-0.349-1.098-1.048c0.096-1.136,0.143-2.27,0.143-3.402v-2.357c0-1.533-0.082-3.008-0.234-4.427h-0.02
			c-0.475,0.06-0.814,0.099-1.064,0.099c-0.672,0-1.008-0.35-1.008-1.051c0.082-1.132,0.133-2.271,0.133-3.411v-1.446
			c0-1.282-0.064-2.528-0.17-3.729c-1.021,0.368-2.113,0.745-3.283,1.113l-0.385-0.555c2.365-1.093,4.871-2.622,7.537-4.591
			C464.988,17.452,466.938,15.461,468.646,13.077z M462.574,30.735h6.201v-6.121h-6.201V30.735z M463.766,25.228
			c1.328,0.404,2.326,0.804,2.98,1.219c0.809,0.526,1.205,0.991,1.205,1.405c0,0.834-0.295,1.508-0.881,2.032
			c-0.355,0.332-0.787,0.494-1.318,0.494c-0.26,0-0.473-0.091-0.641-0.295c-0.16-0.152-0.301-0.559-0.43-1.218
			c-0.178-0.953-0.607-2.069-1.281-3.335L463.766,25.228z M464.838,37.681h11.771v-2.743h-11.771V37.681z M464.838,41.518h11.771
			v-2.882h-11.771V41.518z M465.328,20.416c1.072,0.147,2.611,0.229,4.623,0.229h0.258c0.098-0.016,0.434-0.405,1.027-1.146
			c0.738-0.901,1.18-1.341,1.303-1.341c0.396,0,1.002,0.434,1.814,1.303c0.824,0.88,1.236,1.403,1.236,1.578
			c0,0.369-0.182,0.553-0.557,0.553h-5.082c-1.916,0-3.268,0.055-4.066,0.142L465.328,20.416z M472.283,30.735h6.455v-6.121h-6.455
			V30.735z M473.986,24.973c0.965,0.342,1.861,0.709,2.684,1.077c1.115,0.369,1.668,0.764,1.668,1.188
			c0,0.213-0.258,0.356-0.775,0.45c-0.533,0.113-0.85,0.262-0.953,0.462c-0.836,0.788-1.955,1.526-3.377,2.228l-0.563-0.394
			C473.35,28.479,473.789,26.808,473.986,24.973z"/>
	</g>
	<g>
		<path fill="#3E3A39" d="M95.146,58.131l1.117,0.282c-0.234,0.918-0.656,1.618-1.265,2.1s-1.353,0.723-2.231,0.723
			c-0.91,0-1.649-0.185-2.22-0.556s-1.005-0.907-1.302-1.609c-0.298-0.703-0.446-1.457-0.446-2.264c0-0.879,0.168-1.646,0.504-2.301
			s0.813-1.152,1.434-1.492s1.303-0.51,2.048-0.51c0.845,0,1.555,0.215,2.131,0.646s0.977,1.034,1.203,1.813l-1.1,0.26
			c-0.195-0.614-0.479-1.062-0.853-1.342c-0.372-0.28-0.841-0.42-1.405-0.42c-0.648,0-1.191,0.154-1.627,0.466
			s-0.742,0.729-0.918,1.253c-0.177,0.523-0.266,1.064-0.266,1.621c0,0.718,0.104,1.345,0.314,1.881
			c0.209,0.535,0.534,0.936,0.976,1.2s0.92,0.397,1.435,0.397c0.626,0,1.155-0.181,1.589-0.541
			C94.699,59.377,94.992,58.842,95.146,58.131z"/>
		<path fill="#3E3A39" d="M98.687,61.092v-8.443h1.037v3.029c0.483-0.561,1.094-0.841,1.831-0.841c0.453,0,0.847,0.089,1.181,0.268
			s0.573,0.425,0.718,0.74c0.144,0.315,0.216,0.771,0.216,1.37v3.877h-1.037v-3.877c0-0.518-0.112-0.895-0.337-1.131
			s-0.542-0.354-0.953-0.354c-0.307,0-0.596,0.079-0.866,0.239c-0.271,0.159-0.464,0.375-0.579,0.647s-0.173,0.649-0.173,1.129
			v3.347H98.687z"/>
		<path fill="#3E3A39" d="M106.432,53.84v-1.191h1.037v1.191H106.432z M106.432,61.092v-6.117h1.037v6.117H106.432z"/>
		<path fill="#3E3A39" d="M110.226,61.092v-6.117h0.934v0.87c0.449-0.672,1.098-1.008,1.946-1.008c0.369,0,0.707,0.065,1.017,0.198
			c0.309,0.133,0.54,0.307,0.694,0.521c0.153,0.215,0.261,0.471,0.322,0.766c0.038,0.192,0.058,0.528,0.058,1.008v3.762h-1.037
			v-3.721c0-0.422-0.04-0.738-0.12-0.947c-0.081-0.209-0.225-0.377-0.43-0.502c-0.205-0.124-0.446-0.187-0.723-0.187
			c-0.441,0-0.822,0.14-1.144,0.421c-0.32,0.279-0.48,0.812-0.48,1.595v3.341H110.226z"/>
		<path fill="#3E3A39" d="M122.152,59.121l1.071,0.133c-0.169,0.626-0.482,1.111-0.939,1.457c-0.456,0.346-1.04,0.519-1.75,0.519
			c-0.895,0-1.604-0.275-2.128-0.826c-0.524-0.552-0.786-1.323-0.786-2.318c0-1.028,0.265-1.827,0.794-2.396
			c0.53-0.568,1.218-0.853,2.063-0.853c0.817,0,1.485,0.278,2.004,0.835s0.777,1.34,0.777,2.35c0,0.062-0.002,0.154-0.006,0.276
			h-4.562c0.039,0.673,0.229,1.187,0.57,1.544s0.769,0.535,1.279,0.535c0.38,0,0.704-0.1,0.973-0.299
			C121.781,59.878,121.995,59.56,122.152,59.121z M118.748,57.445h3.416c-0.047-0.514-0.177-0.9-0.392-1.157
			c-0.331-0.399-0.759-0.599-1.285-0.599c-0.476,0-0.876,0.159-1.2,0.478C118.963,56.486,118.783,56.912,118.748,57.445z"/>
		<path fill="#3E3A39" d="M125.29,59.266l1.025-0.161c0.058,0.411,0.218,0.726,0.48,0.944s0.631,0.328,1.103,0.328
			c0.477,0,0.83-0.097,1.06-0.291c0.23-0.193,0.346-0.421,0.346-0.682c0-0.234-0.102-0.419-0.305-0.553
			c-0.143-0.093-0.495-0.21-1.06-0.352c-0.761-0.192-1.287-0.358-1.581-0.498c-0.294-0.141-0.517-0.334-0.668-0.582
			c-0.152-0.248-0.228-0.521-0.228-0.82c0-0.273,0.063-0.525,0.187-0.758c0.125-0.232,0.295-0.426,0.51-0.578
			c0.161-0.119,0.381-0.221,0.66-0.303c0.278-0.083,0.576-0.124,0.896-0.124c0.479,0,0.901,0.069,1.264,0.207
			c0.363,0.138,0.631,0.325,0.804,0.562s0.292,0.553,0.356,0.947l-1.014,0.139c-0.046-0.314-0.179-0.561-0.399-0.737
			c-0.222-0.177-0.533-0.265-0.937-0.265c-0.476,0-0.815,0.078-1.02,0.236c-0.203,0.156-0.305,0.342-0.305,0.553
			c0,0.135,0.042,0.255,0.127,0.362c0.084,0.112,0.217,0.204,0.397,0.276c0.104,0.039,0.408,0.127,0.915,0.266
			c0.733,0.195,1.245,0.355,1.535,0.48s0.518,0.307,0.683,0.545c0.165,0.237,0.247,0.533,0.247,0.887
			c0,0.346-0.101,0.67-0.302,0.976c-0.202,0.306-0.493,0.542-0.873,0.708c-0.38,0.168-0.81,0.251-1.29,0.251
			c-0.795,0-1.4-0.165-1.816-0.495C125.671,60.404,125.405,59.914,125.29,59.266z"/>
		<path fill="#3E3A39" d="M136.969,59.121l1.071,0.133c-0.169,0.626-0.482,1.111-0.939,1.457c-0.456,0.346-1.04,0.519-1.75,0.519
			c-0.895,0-1.604-0.275-2.128-0.826c-0.524-0.552-0.786-1.323-0.786-2.318c0-1.028,0.265-1.827,0.794-2.396
			c0.53-0.568,1.218-0.853,2.063-0.853c0.817,0,1.485,0.278,2.004,0.835s0.777,1.34,0.777,2.35c0,0.062-0.002,0.154-0.006,0.276
			h-4.562c0.039,0.673,0.229,1.187,0.57,1.544s0.769,0.535,1.279,0.535c0.38,0,0.704-0.1,0.973-0.299
			C136.598,59.878,136.812,59.56,136.969,59.121z M133.564,57.445h3.416c-0.047-0.514-0.177-0.9-0.392-1.157
			c-0.331-0.399-0.759-0.599-1.285-0.599c-0.476,0-0.876,0.159-1.2,0.478C133.779,56.486,133.6,56.912,133.564,57.445z"/>
		<path fill="#3E3A39" d="M143.532,61.092l3.242-8.443h1.203l3.456,8.443h-1.272l-0.985-2.558h-3.53l-0.928,2.558H143.532z
			 M145.968,57.624h2.862l-0.881-2.338c-0.269-0.71-0.469-1.294-0.599-1.751c-0.108,0.541-0.26,1.079-0.455,1.613L145.968,57.624z"
			/>
		<path fill="#3E3A39" d="M152.958,59.266l1.025-0.161c0.058,0.411,0.218,0.726,0.48,0.944c0.264,0.219,0.631,0.328,1.104,0.328
			c0.476,0,0.829-0.097,1.06-0.291c0.23-0.193,0.346-0.421,0.346-0.682c0-0.234-0.102-0.419-0.306-0.553
			c-0.142-0.093-0.495-0.21-1.06-0.352c-0.76-0.192-1.287-0.358-1.581-0.498c-0.294-0.141-0.517-0.334-0.668-0.582
			s-0.228-0.521-0.228-0.82c0-0.273,0.063-0.525,0.188-0.758s0.295-0.426,0.51-0.578c0.161-0.119,0.381-0.221,0.659-0.303
			c0.278-0.083,0.577-0.124,0.896-0.124c0.48,0,0.901,0.069,1.265,0.207c0.362,0.138,0.63,0.325,0.803,0.562
			s0.292,0.553,0.357,0.947l-1.014,0.139c-0.046-0.314-0.18-0.561-0.4-0.737s-0.532-0.265-0.936-0.265
			c-0.477,0-0.816,0.078-1.02,0.236c-0.204,0.156-0.306,0.342-0.306,0.553c0,0.135,0.043,0.255,0.127,0.362
			c0.085,0.112,0.217,0.204,0.397,0.276c0.104,0.039,0.409,0.127,0.916,0.266c0.733,0.195,1.244,0.355,1.534,0.48
			s0.518,0.307,0.683,0.545c0.165,0.237,0.248,0.533,0.248,0.887c0,0.346-0.101,0.67-0.303,0.976
			c-0.201,0.306-0.492,0.542-0.872,0.708c-0.38,0.168-0.811,0.251-1.29,0.251c-0.795,0-1.4-0.165-1.817-0.495
			S153.073,59.914,152.958,59.266z"/>
		<path fill="#3E3A39" d="M160.035,59.266l1.025-0.161c0.058,0.411,0.218,0.726,0.48,0.944c0.264,0.219,0.631,0.328,1.104,0.328
			c0.476,0,0.829-0.097,1.06-0.291c0.23-0.193,0.346-0.421,0.346-0.682c0-0.234-0.102-0.419-0.306-0.553
			c-0.142-0.093-0.495-0.21-1.06-0.352c-0.76-0.192-1.287-0.358-1.581-0.498c-0.294-0.141-0.517-0.334-0.668-0.582
			s-0.228-0.521-0.228-0.82c0-0.273,0.063-0.525,0.188-0.758s0.295-0.426,0.51-0.578c0.161-0.119,0.381-0.221,0.659-0.303
			c0.278-0.083,0.577-0.124,0.896-0.124c0.48,0,0.901,0.069,1.265,0.207c0.362,0.138,0.63,0.325,0.803,0.562
			s0.292,0.553,0.357,0.947l-1.014,0.139c-0.046-0.314-0.18-0.561-0.4-0.737s-0.532-0.265-0.936-0.265
			c-0.477,0-0.816,0.078-1.02,0.236c-0.204,0.156-0.306,0.342-0.306,0.553c0,0.135,0.043,0.255,0.127,0.362
			c0.085,0.112,0.217,0.204,0.397,0.276c0.104,0.039,0.409,0.127,0.916,0.266c0.733,0.195,1.244,0.355,1.534,0.48
			s0.518,0.307,0.683,0.545c0.165,0.237,0.248,0.533,0.248,0.887c0,0.346-0.101,0.67-0.303,0.976
			c-0.201,0.306-0.492,0.542-0.872,0.708c-0.38,0.168-0.811,0.251-1.29,0.251c-0.795,0-1.4-0.165-1.817-0.495
			S160.15,59.914,160.035,59.266z"/>
		<path fill="#3E3A39" d="M167.142,58.033c0-1.133,0.314-1.972,0.944-2.517c0.526-0.453,1.167-0.68,1.924-0.68
			c0.841,0,1.527,0.275,2.062,0.826c0.533,0.552,0.801,1.313,0.801,2.284c0,0.787-0.118,1.406-0.354,1.857s-0.58,0.801-1.031,1.051
			c-0.451,0.249-0.943,0.374-1.477,0.374c-0.856,0-1.549-0.274-2.076-0.823C167.405,59.857,167.142,59.066,167.142,58.033z
			 M168.207,58.033c0,0.783,0.171,1.369,0.513,1.76c0.342,0.389,0.771,0.584,1.29,0.584c0.515,0,0.942-0.195,1.284-0.588
			c0.342-0.391,0.513-0.988,0.513-1.791c0-0.756-0.172-1.328-0.516-1.719c-0.344-0.39-0.771-0.584-1.281-0.584
			c-0.519,0-0.948,0.193-1.29,0.581S168.207,57.25,168.207,58.033z"/>
		<path fill="#3E3A39" d="M179.257,58.852l1.02,0.132c-0.111,0.702-0.396,1.253-0.855,1.649c-0.458,0.398-1.021,0.597-1.689,0.597
			c-0.838,0-1.511-0.273-2.02-0.821c-0.509-0.547-0.763-1.33-0.763-2.352c0-0.66,0.109-1.238,0.328-1.734
			c0.219-0.495,0.552-0.866,0.999-1.113c0.447-0.248,0.935-0.372,1.46-0.372c0.665,0,1.208,0.168,1.63,0.504
			c0.423,0.336,0.693,0.813,0.813,1.431l-1.008,0.156c-0.096-0.411-0.266-0.721-0.51-0.928s-0.538-0.311-0.884-0.311
			c-0.522,0-0.947,0.188-1.273,0.561c-0.326,0.375-0.489,0.967-0.489,1.777c0,0.822,0.157,1.419,0.473,1.791
			c0.314,0.373,0.726,0.559,1.232,0.559c0.406,0,0.746-0.125,1.02-0.374C179.012,59.754,179.185,59.369,179.257,58.852z"/>
		<path fill="#3E3A39" d="M182.349,53.84v-1.191h1.037v1.191H182.349z M182.349,61.092v-6.117h1.037v6.117H182.349z"/>
		<path fill="#3E3A39" d="M190.134,60.337c-0.384,0.326-0.753,0.557-1.108,0.69c-0.355,0.135-0.736,0.202-1.144,0.202
			c-0.672,0-1.188-0.164-1.549-0.492c-0.361-0.329-0.541-0.748-0.541-1.259c0-0.299,0.067-0.572,0.204-0.82s0.314-0.446,0.535-0.596
			c0.222-0.15,0.47-0.264,0.746-0.34c0.204-0.055,0.511-0.105,0.922-0.156c0.837-0.1,1.453-0.219,1.849-0.357
			c0.004-0.142,0.006-0.231,0.006-0.27c0-0.423-0.098-0.721-0.294-0.893c-0.265-0.234-0.658-0.352-1.181-0.352
			c-0.487,0-0.848,0.085-1.08,0.256s-0.404,0.473-0.516,0.907l-1.014-0.138c0.093-0.435,0.244-0.785,0.455-1.052
			c0.212-0.267,0.517-0.472,0.916-0.616s0.862-0.216,1.388-0.216c0.522,0,0.946,0.062,1.273,0.185
			c0.326,0.123,0.566,0.277,0.72,0.463c0.153,0.187,0.261,0.422,0.322,0.706c0.035,0.177,0.052,0.495,0.052,0.956v1.382
			c0,0.964,0.022,1.573,0.066,1.829c0.044,0.255,0.132,0.5,0.262,0.734h-1.082C190.234,60.877,190.165,60.625,190.134,60.337z
			 M190.048,58.021c-0.376,0.154-0.94,0.284-1.693,0.392c-0.426,0.062-0.728,0.131-0.904,0.208
			c-0.177,0.076-0.313,0.188-0.409,0.336c-0.096,0.148-0.144,0.313-0.144,0.492c0,0.277,0.104,0.508,0.313,0.691
			c0.21,0.185,0.516,0.277,0.919,0.277c0.399,0,0.755-0.088,1.065-0.263c0.312-0.175,0.539-0.413,0.686-0.717
			c0.111-0.234,0.167-0.579,0.167-1.036V58.021z"/>
		<path fill="#3E3A39" d="M196.146,60.164l0.149,0.916c-0.291,0.061-0.553,0.092-0.783,0.092c-0.376,0-0.668-0.06-0.875-0.179
			c-0.207-0.118-0.354-0.275-0.438-0.47c-0.085-0.193-0.127-0.602-0.127-1.223v-3.52h-0.76v-0.807h0.76v-1.514l1.031-0.623v2.137
			h1.042v0.807h-1.042v3.576c0,0.296,0.018,0.486,0.055,0.57c0.036,0.084,0.096,0.152,0.179,0.201
			c0.082,0.051,0.2,0.076,0.354,0.076C195.806,60.205,195.957,60.191,196.146,60.164z"/>
		<path fill="#3E3A39" d="M198.345,53.84v-1.191h1.036v1.191H198.345z M198.345,61.092v-6.117h1.036v6.117H198.345z"/>
		<path fill="#3E3A39" d="M201.753,58.033c0-1.133,0.314-1.972,0.944-2.517c0.526-0.453,1.167-0.68,1.924-0.68
			c0.841,0,1.527,0.275,2.062,0.826c0.533,0.552,0.801,1.313,0.801,2.284c0,0.787-0.118,1.406-0.354,1.857s-0.58,0.801-1.031,1.051
			c-0.451,0.249-0.943,0.374-1.477,0.374c-0.856,0-1.549-0.274-2.076-0.823C202.017,59.857,201.753,59.066,201.753,58.033z
			 M202.818,58.033c0,0.783,0.171,1.369,0.513,1.76c0.342,0.389,0.771,0.584,1.29,0.584c0.515,0,0.942-0.195,1.284-0.588
			c0.342-0.391,0.513-0.988,0.513-1.791c0-0.756-0.172-1.328-0.516-1.719c-0.344-0.39-0.771-0.584-1.281-0.584
			c-0.519,0-0.948,0.193-1.29,0.581S202.818,57.25,202.818,58.033z"/>
		<path fill="#3E3A39" d="M209.878,61.092v-6.117h0.933v0.87c0.449-0.672,1.099-1.008,1.947-1.008c0.368,0,0.707,0.065,1.017,0.198
			c0.309,0.133,0.54,0.307,0.693,0.521s0.261,0.471,0.322,0.766c0.039,0.192,0.058,0.528,0.058,1.008v3.762h-1.036v-3.721
			c0-0.422-0.04-0.738-0.121-0.947s-0.224-0.377-0.429-0.502c-0.206-0.124-0.446-0.187-0.723-0.187c-0.442,0-0.823,0.14-1.144,0.421
			c-0.32,0.279-0.481,0.812-0.481,1.595v3.341H209.878z"/>
		<path fill="#3E3A39" d="M222.321,61.092v-5.311h-0.916v-0.807h0.916v-0.65c0-0.41,0.036-0.716,0.109-0.916
			c0.1-0.269,0.275-0.486,0.527-0.653c0.251-0.167,0.604-0.251,1.057-0.251c0.292,0,0.614,0.035,0.968,0.104l-0.156,0.904
			c-0.215-0.038-0.418-0.057-0.61-0.057c-0.314,0-0.537,0.066-0.668,0.201s-0.195,0.386-0.195,0.754v0.564h1.191v0.807h-1.191v5.311
			H222.321z"/>
		<path fill="#3E3A39" d="M226.145,58.033c0-1.133,0.314-1.972,0.944-2.517c0.526-0.453,1.167-0.68,1.924-0.68
			c0.841,0,1.527,0.275,2.062,0.826c0.533,0.552,0.801,1.313,0.801,2.284c0,0.787-0.118,1.406-0.354,1.857s-0.58,0.801-1.031,1.051
			c-0.451,0.249-0.943,0.374-1.477,0.374c-0.856,0-1.549-0.274-2.076-0.823C226.408,59.857,226.145,59.066,226.145,58.033z
			 M227.21,58.033c0,0.783,0.171,1.369,0.513,1.76c0.342,0.389,0.771,0.584,1.29,0.584c0.515,0,0.942-0.195,1.284-0.588
			c0.342-0.391,0.513-0.988,0.513-1.791c0-0.756-0.172-1.328-0.516-1.719c-0.344-0.39-0.771-0.584-1.281-0.584
			c-0.519,0-0.948,0.193-1.29,0.581S227.21,57.25,227.21,58.033z"/>
		<path fill="#3E3A39" d="M234.258,61.092v-6.117h0.933v0.928c0.238-0.434,0.458-0.721,0.66-0.858
			c0.201-0.138,0.423-0.207,0.665-0.207c0.35,0,0.704,0.111,1.065,0.334l-0.357,0.962c-0.253-0.15-0.507-0.225-0.76-0.225
			c-0.227,0-0.431,0.068-0.61,0.204c-0.181,0.137-0.31,0.325-0.386,0.567c-0.115,0.369-0.173,0.771-0.173,1.209v3.203H234.258z"/>
		<path fill="#3E3A39" d="M249.99,58.131l1.117,0.282c-0.234,0.918-0.656,1.618-1.265,2.1s-1.353,0.723-2.231,0.723
			c-0.91,0-1.65-0.185-2.221-0.556c-0.569-0.371-1.004-0.907-1.301-1.609c-0.298-0.703-0.446-1.457-0.446-2.264
			c0-0.879,0.167-1.646,0.504-2.301c0.336-0.654,0.813-1.152,1.434-1.492s1.303-0.51,2.048-0.51c0.844,0,1.555,0.215,2.131,0.646
			c0.575,0.431,0.977,1.034,1.203,1.813l-1.1,0.26c-0.196-0.614-0.48-1.062-0.853-1.342s-0.841-0.42-1.405-0.42
			c-0.648,0-1.191,0.154-1.627,0.466s-0.742,0.729-0.919,1.253c-0.177,0.523-0.265,1.064-0.265,1.621
			c0,0.718,0.104,1.345,0.313,1.881c0.21,0.535,0.535,0.936,0.977,1.2s0.92,0.397,1.435,0.397c0.625,0,1.155-0.181,1.589-0.541
			C249.542,59.377,249.836,58.842,249.99,58.131z"/>
		<path fill="#3E3A39" d="M253.145,58.033c0-1.133,0.314-1.972,0.944-2.517c0.526-0.453,1.167-0.68,1.924-0.68
			c0.841,0,1.528,0.275,2.062,0.826c0.534,0.552,0.801,1.313,0.801,2.284c0,0.787-0.118,1.406-0.354,1.857s-0.579,0.801-1.03,1.051
			c-0.451,0.249-0.944,0.374-1.478,0.374c-0.856,0-1.549-0.274-2.076-0.823C253.408,59.857,253.145,59.066,253.145,58.033z
			 M254.21,58.033c0,0.783,0.171,1.369,0.513,1.76c0.342,0.389,0.771,0.584,1.29,0.584c0.515,0,0.942-0.195,1.284-0.588
			c0.342-0.391,0.513-0.988,0.513-1.791c0-0.756-0.172-1.328-0.516-1.719c-0.344-0.39-0.771-0.584-1.281-0.584
			c-0.519,0-0.948,0.193-1.29,0.581S254.21,57.25,254.21,58.033z"/>
		<path fill="#3E3A39" d="M261.27,61.092v-6.117h0.928v0.858c0.191-0.3,0.447-0.54,0.766-0.723s0.682-0.273,1.089-0.273
			c0.452,0,0.824,0.095,1.114,0.282s0.494,0.451,0.613,0.789c0.483-0.715,1.113-1.071,1.889-1.071c0.606,0,1.073,0.168,1.399,0.504
			s0.49,0.853,0.49,1.552v4.199h-1.031v-3.854c0-0.414-0.034-0.713-0.101-0.896c-0.067-0.183-0.189-0.329-0.366-0.44
			s-0.384-0.167-0.622-0.167c-0.43,0-0.787,0.144-1.071,0.429c-0.284,0.286-0.426,0.744-0.426,1.374v3.554h-1.037v-3.975
			c0-0.461-0.084-0.807-0.253-1.037c-0.169-0.229-0.445-0.345-0.829-0.345c-0.292,0-0.562,0.077-0.81,0.23
			c-0.247,0.153-0.427,0.378-0.538,0.674s-0.167,0.722-0.167,1.278v3.174H261.27z"/>
		<path fill="#3E3A39" d="M272.274,63.436v-8.461h0.944v0.795c0.223-0.311,0.475-0.544,0.755-0.699
			c0.28-0.156,0.62-0.233,1.02-0.233c0.521,0,0.982,0.134,1.382,0.403c0.399,0.269,0.701,0.647,0.904,1.137
			c0.203,0.49,0.306,1.026,0.306,1.61c0,0.626-0.112,1.188-0.337,1.69c-0.225,0.501-0.552,0.885-0.979,1.151s-0.878,0.4-1.351,0.4
			c-0.346,0-0.655-0.073-0.93-0.219s-0.501-0.33-0.677-0.553v2.978H272.274z M273.213,58.068c0,0.787,0.16,1.368,0.479,1.744
			c0.318,0.377,0.704,0.564,1.157,0.564c0.461,0,0.855-0.195,1.184-0.584c0.328-0.391,0.492-0.994,0.492-1.812
			c0-0.779-0.16-1.363-0.48-1.751s-0.703-0.582-1.149-0.582c-0.441,0-0.832,0.207-1.172,0.619
			C273.383,56.681,273.213,57.281,273.213,58.068z"/>
		<path fill="#3E3A39" d="M284.022,61.092v-0.898c-0.477,0.69-1.123,1.036-1.941,1.036c-0.36,0-0.697-0.069-1.011-0.208
			c-0.313-0.138-0.545-0.311-0.696-0.521c-0.152-0.209-0.259-0.466-0.32-0.769c-0.042-0.203-0.063-0.526-0.063-0.968v-3.79h1.036
			v3.393c0,0.541,0.021,0.906,0.063,1.094c0.065,0.273,0.203,0.487,0.415,0.643c0.211,0.156,0.472,0.233,0.783,0.233
			c0.311,0,0.603-0.079,0.875-0.239c0.272-0.159,0.466-0.376,0.579-0.65c0.113-0.275,0.17-0.673,0.17-1.195v-3.277h1.036v6.117
			H284.022z"/>
		<path fill="#3E3A39" d="M290.017,60.164l0.149,0.916c-0.292,0.061-0.553,0.092-0.783,0.092c-0.376,0-0.668-0.06-0.875-0.179
			c-0.208-0.118-0.354-0.275-0.438-0.47c-0.085-0.193-0.127-0.602-0.127-1.223v-3.52h-0.761v-0.807h0.761v-1.514l1.03-0.623v2.137
			h1.043v0.807h-1.043v3.576c0,0.296,0.019,0.486,0.055,0.57c0.037,0.084,0.097,0.152,0.179,0.201
			c0.083,0.051,0.201,0.076,0.354,0.076C289.677,60.205,289.828,60.191,290.017,60.164z"/>
		<path fill="#3E3A39" d="M296.397,59.121l1.071,0.133c-0.17,0.626-0.482,1.111-0.939,1.457s-1.04,0.519-1.751,0.519
			c-0.895,0-1.604-0.275-2.128-0.826c-0.523-0.552-0.786-1.323-0.786-2.318c0-1.028,0.266-1.827,0.795-2.396
			c0.53-0.568,1.217-0.853,2.062-0.853c0.818,0,1.486,0.278,2.005,0.835s0.777,1.34,0.777,2.35c0,0.062-0.002,0.154-0.006,0.276
			h-4.562c0.038,0.673,0.229,1.187,0.57,1.544s0.768,0.535,1.278,0.535c0.381,0,0.705-0.1,0.974-0.299
			C296.026,59.878,296.239,59.56,296.397,59.121z M292.993,57.445h3.415c-0.046-0.514-0.176-0.9-0.392-1.157
			c-0.33-0.399-0.758-0.599-1.284-0.599c-0.476,0-0.876,0.159-1.2,0.478C293.207,56.486,293.028,56.912,292.993,57.445z"/>
		<path fill="#3E3A39" d="M299.938,61.092v-6.117h0.934v0.928c0.236-0.434,0.457-0.721,0.658-0.858s0.424-0.207,0.666-0.207
			c0.35,0,0.705,0.111,1.064,0.334l-0.355,0.962c-0.254-0.15-0.508-0.225-0.762-0.225c-0.227,0-0.43,0.068-0.609,0.204
			c-0.182,0.137-0.311,0.325-0.387,0.567c-0.115,0.369-0.172,0.771-0.172,1.209v3.203H299.938z"/>
		<path fill="#3E3A39" d="M313.504,60.337c-0.385,0.326-0.754,0.557-1.109,0.69c-0.355,0.135-0.736,0.202-1.143,0.202
			c-0.672,0-1.189-0.164-1.549-0.492c-0.361-0.329-0.543-0.748-0.543-1.259c0-0.299,0.068-0.572,0.205-0.82s0.314-0.446,0.535-0.596
			c0.221-0.15,0.471-0.264,0.746-0.34c0.203-0.055,0.512-0.105,0.922-0.156c0.838-0.1,1.453-0.219,1.85-0.357
			c0.002-0.142,0.006-0.231,0.006-0.27c0-0.423-0.1-0.721-0.295-0.893c-0.266-0.234-0.658-0.352-1.18-0.352
			c-0.488,0-0.848,0.085-1.08,0.256s-0.404,0.473-0.516,0.907l-1.014-0.138c0.092-0.435,0.244-0.785,0.455-1.052
			s0.516-0.472,0.916-0.616c0.398-0.145,0.861-0.216,1.387-0.216c0.523,0,0.947,0.062,1.273,0.185s0.566,0.277,0.721,0.463
			c0.152,0.187,0.26,0.422,0.322,0.706c0.033,0.177,0.051,0.495,0.051,0.956v1.382c0,0.964,0.023,1.573,0.066,1.829
			c0.045,0.255,0.131,0.5,0.262,0.734h-1.082C313.604,60.877,313.535,60.625,313.504,60.337z M313.418,58.021
			c-0.377,0.154-0.941,0.284-1.693,0.392c-0.428,0.062-0.729,0.131-0.904,0.208c-0.178,0.076-0.314,0.188-0.41,0.336
			c-0.096,0.148-0.143,0.313-0.143,0.492c0,0.277,0.104,0.508,0.313,0.691c0.209,0.185,0.516,0.277,0.92,0.277
			c0.398,0,0.754-0.088,1.064-0.263s0.539-0.413,0.686-0.717c0.111-0.234,0.168-0.579,0.168-1.036V58.021z"/>
		<path fill="#3E3A39" d="M317.252,61.092v-6.117h0.934v0.87c0.449-0.672,1.098-1.008,1.945-1.008c0.369,0,0.707,0.065,1.018,0.198
			c0.309,0.133,0.539,0.307,0.693,0.521s0.262,0.471,0.322,0.766c0.039,0.192,0.059,0.528,0.059,1.008v3.762h-1.037v-3.721
			c0-0.422-0.041-0.738-0.121-0.947s-0.225-0.377-0.43-0.502c-0.205-0.124-0.445-0.187-0.723-0.187c-0.441,0-0.822,0.14-1.143,0.421
			c-0.32,0.279-0.48,0.812-0.48,1.595v3.341H317.252z"/>
		<path fill="#3E3A39" d="M328.959,61.092v-0.772c-0.389,0.606-0.959,0.91-1.711,0.91c-0.486,0-0.936-0.134-1.344-0.403
			c-0.41-0.269-0.727-0.645-0.951-1.125c-0.225-0.482-0.336-1.037-0.336-1.662c0-0.611,0.102-1.164,0.305-1.662
			c0.203-0.496,0.508-0.878,0.916-1.143c0.406-0.266,0.861-0.397,1.365-0.397c0.367,0,0.695,0.077,0.984,0.233
			c0.287,0.155,0.521,0.357,0.703,0.607v-3.029h1.029v8.443H328.959z M325.682,58.039c0,0.783,0.166,1.369,0.496,1.756
			c0.33,0.389,0.719,0.582,1.168,0.582c0.453,0,0.838-0.186,1.156-0.556c0.316-0.37,0.475-0.936,0.475-1.696
			c0-0.836-0.162-1.451-0.484-1.843s-0.719-0.587-1.191-0.587c-0.461,0-0.846,0.188-1.154,0.564
			C325.836,56.636,325.682,57.229,325.682,58.039z"/>
		<path fill="#3E3A39" d="M337.342,61.092v-8.443h6.105v0.996h-4.988v2.586h4.67v0.99h-4.67v2.874h5.184v0.997H337.342z"/>
		<path fill="#3E3A39" d="M350.201,61.092v-0.772c-0.389,0.606-0.959,0.91-1.711,0.91c-0.486,0-0.936-0.134-1.344-0.403
			c-0.41-0.269-0.727-0.645-0.951-1.125c-0.225-0.482-0.336-1.037-0.336-1.662c0-0.611,0.102-1.164,0.305-1.662
			c0.203-0.496,0.508-0.878,0.916-1.143c0.406-0.266,0.861-0.397,1.365-0.397c0.367,0,0.695,0.077,0.984,0.233
			c0.287,0.155,0.521,0.357,0.703,0.607v-3.029h1.029v8.443H350.201z M346.924,58.039c0,0.783,0.166,1.369,0.496,1.756
			c0.33,0.389,0.719,0.582,1.168,0.582c0.453,0,0.838-0.186,1.156-0.556c0.316-0.37,0.475-0.936,0.475-1.696
			c0-0.836-0.162-1.451-0.484-1.843s-0.719-0.587-1.191-0.587c-0.461,0-0.846,0.188-1.154,0.564
			C347.078,56.636,346.924,57.229,346.924,58.039z"/>
		<path fill="#3E3A39" d="M357.98,61.092v-0.898c-0.477,0.69-1.123,1.036-1.941,1.036c-0.359,0-0.697-0.069-1.01-0.208
			c-0.313-0.138-0.545-0.311-0.697-0.521c-0.152-0.209-0.258-0.466-0.32-0.769c-0.041-0.203-0.063-0.526-0.063-0.968v-3.79h1.037
			v3.393c0,0.541,0.021,0.906,0.063,1.094c0.066,0.273,0.203,0.487,0.416,0.643c0.211,0.156,0.471,0.233,0.783,0.233
			c0.311,0,0.602-0.079,0.875-0.239c0.271-0.159,0.465-0.376,0.578-0.65c0.113-0.275,0.17-0.673,0.17-1.195v-3.277h1.037v6.117
			H357.98z"/>
		<path fill="#3E3A39" d="M365.703,58.852l1.02,0.132c-0.111,0.702-0.396,1.253-0.855,1.649c-0.459,0.398-1.023,0.597-1.691,0.597
			c-0.836,0-1.51-0.273-2.018-0.821c-0.51-0.547-0.764-1.33-0.764-2.352c0-0.66,0.109-1.238,0.328-1.734
			c0.219-0.495,0.553-0.866,1-1.113c0.447-0.248,0.934-0.372,1.459-0.372c0.664,0,1.209,0.168,1.631,0.504s0.693,0.813,0.813,1.431
			l-1.008,0.156c-0.098-0.411-0.268-0.721-0.51-0.928c-0.244-0.207-0.539-0.311-0.885-0.311c-0.521,0-0.947,0.188-1.273,0.561
			c-0.326,0.375-0.488,0.967-0.488,1.777c0,0.822,0.156,1.419,0.471,1.791c0.316,0.373,0.727,0.559,1.232,0.559
			c0.408,0,0.748-0.125,1.02-0.374C365.457,59.754,365.629,59.369,365.703,58.852z"/>
		<path fill="#3E3A39" d="M372.779,60.337c-0.383,0.326-0.754,0.557-1.107,0.69c-0.355,0.135-0.736,0.202-1.145,0.202
			c-0.672,0-1.188-0.164-1.549-0.492c-0.361-0.329-0.541-0.748-0.541-1.259c0-0.299,0.068-0.572,0.205-0.82
			c0.135-0.248,0.314-0.446,0.535-0.596c0.221-0.15,0.469-0.264,0.746-0.34c0.203-0.055,0.51-0.105,0.922-0.156
			c0.836-0.1,1.453-0.219,1.848-0.357c0.004-0.142,0.006-0.231,0.006-0.27c0-0.423-0.098-0.721-0.293-0.893
			c-0.266-0.234-0.66-0.352-1.182-0.352c-0.488,0-0.848,0.085-1.08,0.256s-0.404,0.473-0.516,0.907l-1.014-0.138
			c0.094-0.435,0.244-0.785,0.455-1.052s0.518-0.472,0.916-0.616c0.4-0.145,0.861-0.216,1.389-0.216
			c0.521,0,0.945,0.062,1.271,0.185c0.328,0.123,0.566,0.277,0.721,0.463c0.154,0.187,0.262,0.422,0.322,0.706
			c0.035,0.177,0.053,0.495,0.053,0.956v1.382c0,0.964,0.021,1.573,0.066,1.829c0.043,0.255,0.131,0.5,0.262,0.734h-1.084
			C372.879,60.877,372.811,60.625,372.779,60.337z M372.693,58.021c-0.377,0.154-0.941,0.284-1.693,0.392
			c-0.426,0.062-0.727,0.131-0.904,0.208c-0.176,0.076-0.313,0.188-0.408,0.336c-0.096,0.148-0.145,0.313-0.145,0.492
			c0,0.277,0.105,0.508,0.314,0.691c0.209,0.185,0.516,0.277,0.918,0.277c0.4,0,0.754-0.088,1.066-0.263
			c0.311-0.175,0.539-0.413,0.686-0.717c0.111-0.234,0.166-0.579,0.166-1.036V58.021z"/>
		<path fill="#3E3A39" d="M378.791,60.164l0.15,0.916c-0.293,0.061-0.553,0.092-0.783,0.092c-0.377,0-0.668-0.06-0.875-0.179
			c-0.209-0.118-0.354-0.275-0.438-0.47c-0.086-0.193-0.127-0.602-0.127-1.223v-3.52h-0.762v-0.807h0.762v-1.514l1.029-0.623v2.137
			h1.043v0.807h-1.043v3.576c0,0.296,0.02,0.486,0.055,0.57c0.037,0.084,0.098,0.152,0.18,0.201
			c0.082,0.051,0.201,0.076,0.354,0.076C378.451,60.205,378.604,60.191,378.791,60.164z"/>
		<path fill="#3E3A39" d="M380.99,53.84v-1.191h1.037v1.191H380.99z M380.99,61.092v-6.117h1.037v6.117H380.99z"/>
		<path fill="#3E3A39" d="M384.398,58.033c0-1.133,0.314-1.972,0.943-2.517c0.527-0.453,1.168-0.68,1.924-0.68
			c0.842,0,1.529,0.275,2.063,0.826c0.533,0.552,0.801,1.313,0.801,2.284c0,0.787-0.119,1.406-0.355,1.857s-0.578,0.801-1.029,1.051
			c-0.451,0.249-0.945,0.374-1.479,0.374c-0.855,0-1.549-0.274-2.076-0.823S384.398,59.066,384.398,58.033z M385.463,58.033
			c0,0.783,0.172,1.369,0.514,1.76c0.342,0.389,0.771,0.584,1.289,0.584c0.516,0,0.943-0.195,1.285-0.588
			c0.342-0.391,0.512-0.988,0.512-1.791c0-0.756-0.172-1.328-0.516-1.719c-0.344-0.39-0.77-0.584-1.281-0.584
			c-0.518,0-0.947,0.193-1.289,0.581S385.463,57.25,385.463,58.033z"/>
		<path fill="#3E3A39" d="M392.523,61.092v-6.117h0.934v0.87c0.449-0.672,1.098-1.008,1.945-1.008c0.369,0,0.707,0.065,1.018,0.198
			c0.309,0.133,0.539,0.307,0.693,0.521s0.262,0.471,0.322,0.766c0.039,0.192,0.059,0.528,0.059,1.008v3.762h-1.037v-3.721
			c0-0.422-0.041-0.738-0.121-0.947s-0.225-0.377-0.43-0.502c-0.205-0.124-0.445-0.187-0.723-0.187c-0.441,0-0.822,0.14-1.143,0.421
			c-0.32,0.279-0.48,0.812-0.48,1.595v3.341H392.523z"/>
		<path fill="#3E3A39" d="M404.254,60.337c-0.385,0.326-0.754,0.557-1.109,0.69c-0.355,0.135-0.736,0.202-1.143,0.202
			c-0.672,0-1.189-0.164-1.549-0.492c-0.361-0.329-0.543-0.748-0.543-1.259c0-0.299,0.068-0.572,0.205-0.82s0.314-0.446,0.535-0.596
			c0.221-0.15,0.471-0.264,0.746-0.34c0.203-0.055,0.512-0.105,0.922-0.156c0.838-0.1,1.453-0.219,1.85-0.357
			c0.002-0.142,0.006-0.231,0.006-0.27c0-0.423-0.1-0.721-0.295-0.893c-0.266-0.234-0.658-0.352-1.18-0.352
			c-0.488,0-0.848,0.085-1.08,0.256s-0.404,0.473-0.516,0.907l-1.014-0.138c0.092-0.435,0.244-0.785,0.455-1.052
			s0.516-0.472,0.916-0.616c0.398-0.145,0.861-0.216,1.387-0.216c0.523,0,0.947,0.062,1.273,0.185s0.566,0.277,0.721,0.463
			c0.152,0.187,0.26,0.422,0.322,0.706c0.033,0.177,0.051,0.495,0.051,0.956v1.382c0,0.964,0.023,1.573,0.066,1.829
			c0.045,0.255,0.131,0.5,0.262,0.734h-1.082C404.354,60.877,404.285,60.625,404.254,60.337z M404.168,58.021
			c-0.377,0.154-0.941,0.284-1.693,0.392c-0.428,0.062-0.729,0.131-0.904,0.208c-0.178,0.076-0.314,0.188-0.41,0.336
			c-0.096,0.148-0.143,0.313-0.143,0.492c0,0.277,0.104,0.508,0.313,0.691c0.209,0.185,0.516,0.277,0.92,0.277
			c0.398,0,0.754-0.088,1.064-0.263s0.539-0.413,0.686-0.717c0.111-0.234,0.168-0.579,0.168-1.036V58.021z"/>
		<path fill="#3E3A39" d="M407.979,61.092v-8.443h1.037v8.443H407.979z"/>
		<path fill="#3E3A39" d="M418.326,61.092v-7.447h-2.781v-0.996h6.691v0.996h-2.793v7.447H418.326z"/>
		<path fill="#3E3A39" d="M427.309,59.121l1.072,0.133c-0.17,0.626-0.482,1.111-0.939,1.457s-1.041,0.519-1.752,0.519
			c-0.895,0-1.604-0.275-2.127-0.826c-0.523-0.552-0.787-1.323-0.787-2.318c0-1.028,0.266-1.827,0.795-2.396
			c0.531-0.568,1.217-0.853,2.063-0.853c0.818,0,1.486,0.278,2.004,0.835c0.52,0.557,0.777,1.34,0.777,2.35
			c0,0.062-0.002,0.154-0.006,0.276h-4.561c0.037,0.673,0.229,1.187,0.57,1.544s0.768,0.535,1.277,0.535
			c0.381,0,0.705-0.1,0.975-0.299C426.938,59.878,427.15,59.56,427.309,59.121z M423.904,57.445h3.416
			c-0.047-0.514-0.176-0.9-0.393-1.157c-0.33-0.399-0.758-0.599-1.283-0.599c-0.477,0-0.877,0.159-1.201,0.478
			C424.119,56.486,423.939,56.912,423.904,57.445z"/>
		<path fill="#3E3A39" d="M434.852,58.852l1.02,0.132c-0.111,0.702-0.396,1.253-0.855,1.649c-0.459,0.398-1.021,0.597-1.689,0.597
			c-0.838,0-1.51-0.273-2.02-0.821c-0.508-0.547-0.762-1.33-0.762-2.352c0-0.66,0.109-1.238,0.328-1.734
			c0.219-0.495,0.551-0.866,0.998-1.113c0.447-0.248,0.934-0.372,1.461-0.372c0.664,0,1.207,0.168,1.629,0.504
			c0.424,0.336,0.693,0.813,0.813,1.431l-1.008,0.156c-0.096-0.411-0.266-0.721-0.51-0.928s-0.539-0.311-0.885-0.311
			c-0.521,0-0.945,0.188-1.271,0.561c-0.326,0.375-0.49,0.967-0.49,1.777c0,0.822,0.158,1.419,0.473,1.791
			c0.314,0.373,0.725,0.559,1.232,0.559c0.406,0,0.746-0.125,1.02-0.374C434.605,59.754,434.779,59.369,434.852,58.852z"/>
		<path fill="#3E3A39" d="M437.938,61.092v-8.443h1.037v3.029c0.484-0.561,1.094-0.841,1.832-0.841c0.453,0,0.846,0.089,1.18,0.268
			s0.574,0.425,0.717,0.74c0.145,0.315,0.217,0.771,0.217,1.37v3.877h-1.037v-3.877c0-0.518-0.111-0.895-0.336-1.131
			s-0.543-0.354-0.953-0.354c-0.309,0-0.598,0.079-0.867,0.239c-0.271,0.159-0.463,0.375-0.578,0.647s-0.174,0.649-0.174,1.129
			v3.347H437.938z"/>
		<path fill="#3E3A39" d="M445.678,61.092v-6.117h0.934v0.87c0.449-0.672,1.098-1.008,1.945-1.008c0.369,0,0.707,0.065,1.018,0.198
			c0.309,0.133,0.539,0.307,0.693,0.521s0.262,0.471,0.322,0.766c0.039,0.192,0.059,0.528,0.059,1.008v3.762h-1.037v-3.721
			c0-0.422-0.041-0.738-0.121-0.947s-0.225-0.377-0.43-0.502c-0.205-0.124-0.445-0.187-0.723-0.187c-0.441,0-0.822,0.14-1.143,0.421
			c-0.32,0.279-0.48,0.812-0.48,1.595v3.341H445.678z"/>
		<path fill="#3E3A39" d="M453.031,58.033c0-1.133,0.314-1.972,0.943-2.517c0.527-0.453,1.168-0.68,1.924-0.68
			c0.842,0,1.529,0.275,2.063,0.826c0.533,0.552,0.801,1.313,0.801,2.284c0,0.787-0.119,1.406-0.355,1.857s-0.578,0.801-1.029,1.051
			c-0.451,0.249-0.945,0.374-1.479,0.374c-0.855,0-1.549-0.274-2.076-0.823S453.031,59.066,453.031,58.033z M454.096,58.033
			c0,0.783,0.172,1.369,0.514,1.76c0.342,0.389,0.771,0.584,1.289,0.584c0.516,0,0.943-0.195,1.285-0.588
			c0.342-0.391,0.512-0.988,0.512-1.791c0-0.756-0.172-1.328-0.516-1.719c-0.344-0.39-0.77-0.584-1.281-0.584
			c-0.518,0-0.947,0.193-1.289,0.581S454.096,57.25,454.096,58.033z"/>
		<path fill="#3E3A39" d="M461.133,61.092v-8.443h1.037v8.443H461.133z"/>
		<path fill="#3E3A39" d="M464.57,58.033c0-1.133,0.314-1.972,0.943-2.517c0.527-0.453,1.168-0.68,1.924-0.68
			c0.842,0,1.529,0.275,2.063,0.826c0.533,0.552,0.801,1.313,0.801,2.284c0,0.787-0.119,1.406-0.355,1.857s-0.578,0.801-1.029,1.051
			c-0.451,0.249-0.945,0.374-1.479,0.374c-0.855,0-1.549-0.274-2.076-0.823S464.57,59.066,464.57,58.033z M465.635,58.033
			c0,0.783,0.172,1.369,0.514,1.76c0.342,0.389,0.771,0.584,1.289,0.584c0.516,0,0.943-0.195,1.285-0.588
			c0.342-0.391,0.512-0.988,0.512-1.791c0-0.756-0.172-1.328-0.516-1.719c-0.344-0.39-0.77-0.584-1.281-0.584
			c-0.518,0-0.947,0.193-1.289,0.581S465.635,57.25,465.635,58.033z"/>
		<path fill="#3E3A39" d="M472.506,61.598l1.008,0.15c0.041,0.311,0.158,0.537,0.35,0.68c0.258,0.191,0.609,0.287,1.055,0.287
			c0.48,0,0.85-0.096,1.111-0.287c0.262-0.192,0.438-0.461,0.529-0.807c0.055-0.211,0.08-0.654,0.076-1.33
			c-0.453,0.533-1.018,0.801-1.693,0.801c-0.842,0-1.492-0.304-1.953-0.91c-0.461-0.607-0.691-1.334-0.691-2.184
			c0-0.583,0.105-1.121,0.318-1.615c0.211-0.493,0.516-0.874,0.918-1.143c0.4-0.27,0.873-0.403,1.414-0.403
			c0.721,0,1.316,0.292,1.785,0.876v-0.738h0.955v5.287c0,0.953-0.096,1.627-0.291,2.024c-0.193,0.397-0.5,0.712-0.92,0.942
			c-0.422,0.23-0.939,0.346-1.553,0.346c-0.73,0-1.318-0.165-1.768-0.493S472.49,62.258,472.506,61.598z M473.363,57.924
			c0,0.803,0.158,1.388,0.479,1.756c0.318,0.369,0.717,0.554,1.197,0.554c0.477,0,0.875-0.184,1.197-0.55
			c0.322-0.367,0.484-0.941,0.484-1.725c0-0.75-0.166-1.314-0.498-1.693c-0.332-0.381-0.732-0.57-1.201-0.57
			c-0.461,0-0.852,0.188-1.174,0.561C473.523,56.631,473.363,57.187,473.363,57.924z"/>
		<path fill="#3E3A39" d="M480.389,63.447l-0.115-0.974c0.227,0.062,0.424,0.092,0.592,0.092c0.23,0,0.416-0.038,0.555-0.114
			c0.137-0.078,0.25-0.186,0.34-0.323c0.064-0.104,0.17-0.36,0.316-0.771c0.02-0.058,0.049-0.142,0.092-0.253l-2.32-6.129h1.117
			l1.271,3.543c0.166,0.449,0.313,0.921,0.443,1.416c0.119-0.477,0.262-0.94,0.428-1.394l1.307-3.565h1.037l-2.328,6.221
			c-0.248,0.672-0.443,1.135-0.58,1.388c-0.186,0.342-0.396,0.593-0.635,0.751c-0.238,0.16-0.521,0.24-0.852,0.24
			C480.857,63.574,480.635,63.531,480.389,63.447z"/>
	</g>
	<g>
		<g>
			<g>
				<path fill="#FFFFFF" d="M40.134,75.393c-20.071,0-36.394-16.327-36.394-36.391c0-20.067,16.322-36.394,36.394-36.394
					c20.063,0,36.396,16.326,36.396,36.394C76.53,59.065,60.197,75.393,40.134,75.393z"/>
			</g>
		</g>
		<g>
			<g>
				<path fill="#0A6494" d="M40.747,21.623c-0.71,0.049-1.765-0.126-2.395,0.198c-0.359,0.19-0.313,0.427-0.44,0.722
					c-0.195,0.466-0.318,0.136-0.744,0.148c-0.079-0.353,0.393-0.653,0.56-0.938c0.174-0.293,0.301-0.938,0.199-1.274
					c-0.089-0.295-0.446-0.511-0.69-0.699c-0.519-0.437-1.978-1.946-1.004-5.067c0.98-3.117,7.496-6.822,9.355-7.473
					c-0.035,2.603,3.344,7.804,2.036,11.066C46.313,21.568,41.69,21.554,40.747,21.623z"/>
				<path fill="#0A6494" d="M21.812,37.527c0.031,0.099,0.429,2.322,0.987,3.491c0.558,1.167,1.55,2.224,3.164,3.411
					c1.617,1.191,3.818,1.426,5.11,1.102c1.272-0.314,3.335-1.58,4.139-1.57c0.458,0.01,1.743,0.744,2.001,0.414
					c-0.08-0.764-0.945-0.803-1.401-1.01c-0.594-0.27-0.564-0.561-0.941-1.197c-0.326-0.553-1.813-2.904-2.256-3.477
					c-1.199-1.541-3.128-2.26-4.898-1.898c-1.854,0.004-3.395,1.081-4.198,1.238C22.717,38.185,21.812,37.527,21.812,37.527z"/>
				<path fill="#0A6494" d="M38.82,33.688c-0.438-0.048-0.821-1.007-1.108-1.329c-0.444-0.499-0.544-0.648-1.194-0.669
					c-0.521-0.015-1.067-0.622-1.403-1.057c-0.706-0.908-1.412-0.248-1.834-0.417c-0.763,1.962-3.212,3.912-7.249,2.944
					c-4.041-0.965-3.911-3.773-5.44-5.142c0-1.887,2.651-4.784,5.776-4.808c3.119-0.021,5.884,1.728,6.455,2.94
					c0.571,1.215,0.018,1.64,0.34,2.696c0.146,0.49,0.767,0.232,1.207,0.314c0.463,0.089,0.776,0.219,1.099,0.515
					c0.312,0.284,0.605,0.512,1.046,0.536c1.004,0.054,1.771,1.057,2.52,0.054"/>
				<path fill="#0A6494" d="M39.637,29.143c0.563-0.947,1.974-1.763,2.985-1.82c1.081-0.063,2.15,0.628,3.154,0.174
					c0.996-0.456,1.33-2.354,2.249-2.977c1.184-0.797,3.41-1.265,5.769,0.527c2.7,2.06,3.16,3.975,6.019,4.668
					c0.194,0.87-2.137,3.43-6.512,4.051c-4.159,0.582-5.493,0.024-6.646-1.663c-1.154-1.688-1.191-2.479-1.537-2.905
					c-0.45-0.55-1.735-0.715-2.438-0.475c-0.707,0.248-1.654,1.314-2.18,1.964c-0.648,0.796-1.179,1.729-1.547,2.657"/>
				<path fill="#0A6494" d="M41.619,27.92c0.213-0.243,0.384-0.73,0.763-0.746c0.021-0.427,0.075-0.943-0.098-1.327
					c-0.224-0.481-0.313-0.67-0.313-1.248c0-0.568,0.103-0.853,0.51-1.24c0.32-0.309,0.745-0.901,1.149-1.063
					c0.287,0.559,0.448,1.176,0.529,1.799c0.063,0.474,0.127,1.529-0.019,1.976c-0.235,0.699-1.126,0.231-1.289,0.829
					c-0.135,0.472,0.022,0.38-0.326,0.65c-0.194,0.146-0.334,0.203-0.281,0.553"/>
				<path fill="#0A6494" d="M39.785,34.796c0.325-0.39,1.216-0.273,1.488-0.681c0.202-0.29-0.485-1.242,0.268-1.699
					c0.854-0.533,1.657,0.066,2.463-0.063c0.031,0.613-0.062,1.545-0.637,1.981c-0.507,0.384-1.205,0.301-1.675,0.188
					c-0.291-0.066-0.71-0.246-1.559,0.658"/>
				<path fill="#0A6494" d="M37.415,36.938c-0.234-0.121-0.332-0.069-0.562-0.196c-0.521,0.262-0.935,0.5-1.551,0.341
					c-0.662-0.176-1.182-0.619-1.659-1.143c0.256-0.338,0.871-0.812,1.273-0.938c0.551-0.179,1.608,0.14,1.989,0.396
					c0.64,0.436-0.369,0.928,0.623,1.289"/>
				<path fill="#0A6494" d="M41.798,45.621c1.042-0.139,1.669-0.536,1.76-1.462c0.051-0.521-0.12-3.771,4.938-3.098
					c3.473,0.464,5.511,3.023,6.079,3.577c0.4,0.396,0.731,0.932,1.234,1.191c0.332,0.175,0.761,0.262,1.182,0.248
					c-1.445,0.797-2.003,2.268-3.658,3.107c-1.653,0.834-2.674,1.408-5.431,1.404c-2.756-0.008-4.887-2.26-5.163-4.542
					c0,0-0.489-0.159-0.854-0.047C41.527,46.113,41.798,45.621,41.798,45.621z"/>
				<g>
					<path fill="#FFFFFF" d="M32.822,42.606c-0.242,0.338-0.468,0.609-0.681,0.808c-0.212,0.203-0.487,0.398-0.825,0.59
						c-0.782,0.453-1.582,0.58-2.391,0.371c-0.812-0.2-1.435-0.68-1.876-1.438c-0.474-0.825-0.576-1.679-0.308-2.561
						c0.273-0.883,0.848-1.576,1.725-2.085c0.238-0.138,0.459-0.24,0.66-0.308c0.192-0.072,0.457-0.141,0.792-0.204l0.578,1.007
						c-0.354-0.016-0.659,0.004-0.913,0.063c-0.249,0.059-0.508,0.165-0.779,0.322c-0.491,0.283-0.801,0.707-0.912,1.273
						c-0.115,0.558-0.012,1.12,0.313,1.683c0.324,0.559,0.751,0.936,1.277,1.122c0.521,0.192,1.022,0.151,1.496-0.12
						c0.316-0.185,0.568-0.396,0.761-0.625c0.19-0.233,0.357-0.538,0.499-0.912L32.822,42.606z"/>
				</g>
				<g>
					<path fill="#FFFFFF" d="M44.845,18.801c-0.47,0.218-0.878,0.369-1.225,0.452c-0.35,0.082-0.769,0.121-1.256,0.121
						c-1.12,0-2.048-0.359-2.791-1.08c-0.741-0.718-1.112-1.619-1.112-2.704c0-1.176,0.415-2.15,1.246-2.935
						c0.836-0.779,1.885-1.17,3.145-1.17c0.341,0,0.637,0.023,0.896,0.07c0.25,0.045,0.576,0.142,0.973,0.275v1.442
						c-0.373-0.235-0.717-0.404-1.021-0.499c-0.297-0.091-0.646-0.136-1.036-0.136c-0.703,0-1.293,0.264-1.759,0.794
						c-0.47,0.533-0.71,1.197-0.71,1.999s0.23,1.467,0.67,1.993c0.445,0.535,1.013,0.798,1.681,0.798c0.45,0,0.857-0.063,1.207-0.2
						c0.347-0.13,0.714-0.354,1.093-0.667V18.801z"/>
				</g>
				<g>
					<path fill="#FFFFFF" d="M48.441,31.71c0.103-0.138,0.191-0.291,0.26-0.454c0.067-0.167,0.128-0.388,0.183-0.652l0.759-3.771
						c0.056-0.265,0.079-0.486,0.079-0.67c0.004-0.181-0.017-0.354-0.064-0.522l1.495,0.299l2.096,0.42l-0.388,0.545l-0.392,0.544
						c-0.216-0.161-0.429-0.29-0.633-0.377c-0.2-0.091-0.441-0.161-0.717-0.217l-0.151-0.03l-0.332,1.666l1.914,0.386l-0.397,0.495
						l-0.407,0.489c-0.265-0.147-0.482-0.262-0.636-0.334c-0.157-0.067-0.293-0.116-0.407-0.142l-0.24-0.047l-0.354,1.778
						c0.438,0.075,0.829,0.11,1.163,0.11c0.443,0.004,0.895-0.063,1.339-0.185l-0.439,0.664l-0.448,0.664l-1.793-0.361L48.441,31.71
						z"/>
				</g>
				<g>
					<path fill="#FFFFFF" d="M47.21,47.656l0.815-4.029c-0.45-0.081-0.801-0.132-1.073-0.156c-0.382-0.029-0.658-0.008-0.834,0.075
						l0.263-0.563l0.261-0.561l2.193,0.441l2.482,0.498l-0.281,0.559l-0.279,0.556c-0.136-0.144-0.32-0.258-0.56-0.35
						c-0.213-0.089-0.512-0.171-0.896-0.25l-0.813,4.038c-0.047,0.249-0.075,0.467-0.075,0.647c0,0.177,0.028,0.36,0.082,0.549
						l-0.871-0.175l-0.879-0.18c0.122-0.146,0.215-0.308,0.289-0.475C47.102,48.117,47.162,47.909,47.21,47.656z"/>
				</g>
				<g>
					<path fill="#FFFFFF" d="M25.938,30.735l0.047-4.419c0.006-0.228,0.002-0.442-0.008-0.637c-0.011-0.2-0.022-0.33-0.048-0.39
						l0.482-0.2l0.479-0.204c0.027,0.055,0.105,0.157,0.243,0.303c0.134,0.142,0.291,0.291,0.456,0.443l3.216,3.039
						c0.224,0.216,0.421,0.386,0.573,0.518c0.155,0.124,0.311,0.226,0.465,0.318l-0.783,0.332l-0.774,0.33
						c-0.041-0.132-0.102-0.256-0.186-0.374c-0.077-0.118-0.201-0.255-0.362-0.42l-0.604-0.609l-2.126,0.908l0.007,0.862
						c0,0.176,0.014,0.332,0.052,0.473c0.029,0.139,0.093,0.289,0.177,0.449l-0.688,0.295l-0.693,0.299
						c0.027-0.114,0.045-0.27,0.061-0.468C25.929,31.386,25.933,31.104,25.938,30.735z M27.004,28.616l1.415-0.598l-1.437-1.462
						l-0.004,0.004L27.004,28.616z"/>
				</g>
				<linearGradient id="SVGID_1_" gradientUnits="userSpaceOnUse" x1="41.1519" y1="57.4775" x2="41.1519" y2="20.6045">
					<stop  offset="0.103" style="stop-color:#EE7B2F"/>
					<stop  offset="0.3576" style="stop-color:#0A6494"/>
				</linearGradient>
				<path fill="url(#SVGID_1_)" d="M34.536,57.478c0.221-0.885,2.37-13.567,2.455-14.474c0.061-0.586,0.265-0.836,0.155-1.096
					c-0.132-0.32-0.479-0.453-0.433-0.779c0.016-0.148,0.433-0.182,0.481-0.299c0.11-0.297-0.049-0.322-0.02-0.789
					c0.02-0.396,0.095-0.802,0.045-1.192c-0.107-0.794,0.169-1.62,0.26-2.438c0.085-0.81,0.338-1.604,0.449-2.446
					c0.099-0.784-0.164-1.583-0.025-2.364c0.131-0.735,0.59-1.439,0.636-2.2c0.037-0.607,0-1.232,0-1.846c0-0.479,0-0.959,0-1.438
					c0-0.525-0.147-1.056-0.204-1.568c-0.049-0.448-0.124-0.786-0.624-0.961c-0.464-0.159-0.604,0.005-0.751-0.545
					c-0.54-0.134-0.858-0.604-1.371-0.522c-0.458,0.068-0.494,0.34-1.005,0.34c-0.72,0-1.449-0.124-1.716-0.835
					c-0.173-0.456-0.204-0.846-0.181-1.337c1.014,0.153,1.464-0.122,1.906-0.078c0.407,0.039,0.737,0.204,1.015,0.479
					c0.299,0.286,0.267,0.771,0.483,1.073c0.188,0.243,0.511,0.35,0.815,0.325c0.415-0.035,0.316-0.022,0.442-0.35
					c0.195-0.495,0.554-0.503,0.46,0.149c-0.134,0.949,0.395,0.908,1.144,1.065c0.53,0.112,1.019,0.635,1.298,1.104
					c0.722,0.275,0.157,1.758,0.031,2.26c-0.179,0.696-0.27,1.326-0.27,2.117c0,0.836-0.515,1.523-0.266,2.365
					c0.13,0.435,0.427,0.727,0.584,1.153c0.134,0.372,0.103,0.823,0.103,1.242c0,0.876-0.19,1.999,0.1,2.816
					c0.311,0.865,1.339,1.178,2.157,1.38c0.791,0.206,1.646,0.189,2.489,0.189c0.834,0,0.539,0.195,0.543-0.312
					c0.006-0.251,0.077-0.147-0.113-0.367c-0.118-0.136-0.254-0.123-0.358-0.293c-0.167-0.268-0.149-0.915-0.091-1.242
					c0.136-0.794,1.288-0.969,1.795-1.509c-0.004,0.707,0.65,2.149,0.016,2.718c-0.255,0.226-0.726,0.175-0.936,0.493
					c-0.108,0.157-0.14,0.264-0.09,0.456c0.642,0.182,1.784,0.242,2.36,0.605c0.317,0.202,1.217,0.429,1.305,0.856
					c0.171,0.814-1.892-0.047-2.214-0.161c-0.267-0.103-0.593-0.316-0.862-0.381c-0.328-0.08-0.71,0-1.061,0.066
					c-0.758,0.149-1.393,0.505-2.078,0.827c-0.975,0.459-0.987,0.974-1.205,2.07c-0.192,0.967,0.021,1.83,0.041,2.83
					c0.027,1.659-0.181,11.046-0.181,12.721"/>
			</g>
			<g>
				<path fill="#EE7B2F" d="M24.575,69.84c4.76,2.544,10.192,3.986,15.964,3.986c16.23,0,29.792-11.4,33.122-26.629
					c-2.789,0.174-5.621,0.504-8.467,0.993C48.253,51.117,33.909,59.219,24.575,69.84z"/>
				<path fill="#4DAD34" d="M33.198,73.016c2.379,0.527,4.846,0.811,7.392,0.811c15.244,0,28.142-10.059,32.411-23.906
					C56.123,53.375,42.026,61.982,33.198,73.016z"/>
				<path fill="#E3CD1E" d="M42.636,73.76c13.884-0.846,25.51-10.044,29.913-22.637C59.685,56.059,49.229,64.141,42.636,73.76z"/>
				<path fill="#D83F32" d="M71.706,53.299C63.193,57.391,56.1,63.964,51.341,72.069C60.504,68.991,67.916,62.104,71.706,53.299z"/>
				<path fill="#EE7B2F" d="M7.682,50.834c4.746,13.395,17.526,22.992,32.556,22.992c6.17,0,11.971-1.621,16.979-4.457
					C45.97,58.099,28.298,50.83,8.419,50.83C8.171,50.83,7.929,50.834,7.682,50.834z"/>
				<path fill="#4DAD34" d="M40.539,73.826c3.45,0,6.784-0.517,9.921-1.475C41.021,61.998,26.254,54.748,9.227,52.953
					C14.341,65.209,26.433,73.826,40.539,73.826z"/>
				<path fill="#E3CD1E" d="M40.539,73.826c0.389,0,0.771-0.008,1.153-0.023c-7.547-8.495-18.521-15.143-31.431-18.609
					C15.844,66.248,27.309,73.826,40.539,73.826z"/>
				<path fill="#D83F32" d="M11.808,58.309c4.651,7.195,11.96,12.519,20.538,14.578C27.004,66.955,19.983,61.947,11.808,58.309z"/>
			</g>
		</g>
		<g>
			<g>
				<path fill="#EE7B2F" d="M40.332,77.537c-21.253,0-38.541-17.287-38.541-38.535c0-21.251,17.288-38.539,38.541-38.539
					c21.249,0,38.539,17.288,38.539,38.539C78.871,60.25,61.581,77.537,40.332,77.537z M40.332,4.759
					c-18.887,0-34.245,15.358-34.245,34.243c0,18.881,15.358,34.242,34.245,34.242c18.881,0,34.244-15.361,34.244-34.242
					C74.576,20.117,59.213,4.759,40.332,4.759z"/>
			</g>
		</g>
	</g>
</g>
<g>
</g>
<g>
</g>
<g>
</g>
<g>
</g>
<g>
</g>
<g>
</g>
</svg>
